<svg width="24" height="22" viewBox="0 0 24 22" fill="none" xmlns="http://www.w3.org/2000/svg">
<path d="M22.6957 7.08685H1.30434C0.585141 7.08685 0 7.67199 0 8.39119V20.1303C0 20.8495 0.585141 21.4347 1.30434 21.4347H22.6957C23.4149 21.4347 24 20.8495 24 20.1303V8.39119C24 7.67199 23.4149 7.08685 22.6957 7.08685ZM22.4348 19.8694H1.5652V8.65205H22.4347L22.4348 19.8694Z" fill="#25AAE1"/>
<path d="M3.65217 7.08685C3.21989 7.08685 2.86955 7.43719 2.86955 7.86947V8.6521C2.86955 9.23724 2.4112 9.69558 1.82606 9.69558H0.782625C0.350344 9.69553 0 10.0459 0 10.4782C0 10.9104 0.350344 11.2608 0.782625 11.2608H1.82611C3.26456 11.2608 4.4348 10.0905 4.4348 8.6521V7.86947C4.4348 7.43719 4.08445 7.08685 3.65217 7.08685Z" fill="#25AAE1"/>
<path d="M23.2174 9.6955H22.4348C21.8496 9.6955 21.3913 9.23716 21.3913 8.65202V7.86939C21.3913 7.43711 21.041 7.08677 20.6087 7.08677C20.1764 7.08677 19.826 7.43711 19.826 7.86939V8.65202C19.826 10.0905 20.9963 11.2607 22.4347 11.2607H23.2174C23.6496 11.2607 24 10.9104 24 10.4781C24 10.0458 23.6497 9.6955 23.2174 9.6955Z" fill="#25AAE1"/>
<path d="M1.82611 17.2608H0.782625C0.350344 17.2608 0 17.6111 0 18.0434C0 18.4757 0.350344 18.826 0.782625 18.826H1.82611C2.41125 18.826 2.86959 19.2844 2.86959 19.8695V20.6521C2.86959 21.0844 3.21994 21.4347 3.65222 21.4347C4.0845 21.4347 4.43484 21.0844 4.43484 20.6521V19.8695C4.4348 18.431 3.26452 17.2608 1.82611 17.2608Z" fill="#25AAE1"/>
<path d="M23.2174 17.2608H22.1739C20.7354 17.2608 19.5652 18.431 19.5652 19.8695V20.6521C19.5652 21.0844 19.9155 21.4347 20.3478 21.4347C20.7801 21.4347 21.1305 21.0844 21.1305 20.6521V19.8695C21.1305 19.2843 21.5888 18.826 22.1739 18.826H23.2174C23.6497 18.826 24 18.4756 24 18.0433C24 17.6111 23.6497 17.2608 23.2174 17.2608Z" fill="#25AAE1"/>
<path d="M21.1305 3.69544H2.86955C2.43727 3.69544 2.08693 4.04578 2.08693 4.47806C2.08693 4.91034 2.43727 5.26068 2.86955 5.26068H21.1304C21.5627 5.26068 21.913 4.91034 21.913 4.47806C21.913 4.04578 21.5627 3.69544 21.1305 3.69544Z" fill="#25AAE1"/>
<path d="M18.7826 0.564941H5.21735C4.78506 0.564941 4.43472 0.915285 4.43472 1.34757C4.43472 1.77985 4.78506 2.13019 5.21735 2.13019H18.7825C19.2148 2.13019 19.5652 1.77985 19.5652 1.34757C19.5652 0.915285 19.2148 0.564941 18.7826 0.564941Z" fill="#25AAE1"/>
<path d="M12.0001 9.9302C9.62667 9.9302 7.6957 11.8609 7.6957 14.2345C7.6957 16.6079 9.62667 18.5389 12.0001 18.5389C14.3734 18.5389 16.3044 16.6079 16.3044 14.2345C16.3044 11.8611 14.3734 9.9302 12.0001 9.9302ZM12.0001 16.9736C10.4896 16.9736 9.26091 15.745 9.26091 14.2345C9.26091 12.724 10.4896 11.4951 12.0001 11.4951C13.5105 11.4951 14.7392 12.7241 14.7392 14.2345C14.7392 15.745 13.5105 16.9736 12.0001 16.9736Z" fill="#25AAE1"/>
</svg>
