<svg width="24" height="24" viewBox="0 0 24 24" fill="none" xmlns="http://www.w3.org/2000/svg">
<path d="M21.0712 16.537C18.1865 15.4586 15.2604 14.8888 12.3672 14.8405C12.4391 13.8679 12.4255 12.9283 12.327 12.0319C13.2162 12.5011 14.2399 12.6374 15.2943 12.4133C18.947 11.6368 21.737 8.54971 22.0636 4.757C22.0869 4.48656 21.9622 4.22465 21.7377 4.07215C18.8875 2.13644 15.0638 2.11915 12.11 4.20501C10.2676 1.03916 6.43094 -0.718977 2.6687 0.280146C2.40637 0.34976 2.20212 0.555745 2.13466 0.81864C0.754653 6.19678 4.94822 10.9509 8.29695 10.9509C9.07236 10.9509 9.81422 10.7356 10.476 10.3484C10.845 11.6257 11.0038 13.1382 10.8616 14.8623C8.19864 14.9844 5.51311 15.5461 2.86259 16.537C-1.40973 18.1342 -0.842547 22.2248 4.18059 23.2269C9.34707 24.2577 14.5868 24.2577 19.7532 23.2269C24.7645 22.2272 25.3525 18.1376 21.0712 16.537ZM20.5162 5.07385C20.0788 7.95886 17.8775 10.3306 14.9823 10.946C14.0005 11.1548 13.0467 10.9116 12.3309 10.1834C13.8375 8.44288 15.3214 7.45941 17.4198 6.80522C17.8153 6.68188 18.0359 6.26134 17.9126 5.86591C17.7893 5.47035 17.3686 5.25002 16.9733 5.37303C15.2198 5.91968 13.8101 6.69599 12.5097 7.8583C12.7545 7.13609 12.8018 6.39189 12.6627 5.66401C14.9324 3.86551 18.0418 3.62235 20.5162 5.07385ZM6.77049 9.00134C4.23768 7.46049 2.94979 4.49162 3.49025 1.6294C6.36447 1.06672 9.26977 2.3924 10.787 4.91301C11.3972 5.92662 11.3222 6.90812 10.9699 7.67149C10.1273 6.19772 8.96187 5.09279 7.59189 4.49359C7.21232 4.3275 6.77011 4.50067 6.60411 4.88025C6.43812 5.25978 6.61124 5.70198 6.99077 5.86798C8.14032 6.3708 9.20344 7.4077 9.93221 8.91719C8.99117 9.57814 7.82821 9.64494 6.77049 9.00134ZM19.4597 21.7558C14.4878 22.7477 9.44589 22.7477 4.474 21.7558C2.9962 21.461 1.50016 20.6584 1.50016 19.6948C1.50016 19.049 2.22345 18.3773 3.38782 17.9421C5.80376 17.0389 8.24646 16.5134 10.667 16.3745C10.6009 16.7552 10.5208 17.1448 10.4258 17.5429C10.3297 17.9458 10.5785 18.3504 10.9814 18.4464C11.3834 18.5424 11.7887 18.2947 11.885 17.8908C12.01 17.367 12.1124 16.8491 12.193 16.3382C14.9633 16.3661 17.7722 16.9052 20.5459 17.9421C21.7102 18.3773 22.4335 19.0489 22.4335 19.6948C22.4335 20.6584 20.9375 21.461 19.4597 21.7558Z" fill="#25AAE1"/>
</svg>
