<svg width="18" height="16" viewBox="0 0 18 16" fill="none" xmlns="http://www.w3.org/2000/svg">
<path fill-rule="evenodd" clip-rule="evenodd" d="M3.16663 2.16667C2.70639 2.16667 2.33329 2.53976 2.33329 3C2.33329 3.46024 2.70639 3.83333 3.16663 3.83333H14.8333C15.2935 3.83333 15.6666 3.46024 15.6666 3C15.6666 2.53976 15.2935 2.16667 14.8333 2.16667H3.16663ZM0.666626 3C0.666626 1.61929 1.78591 0.5 3.16663 0.5H14.8333C16.214 0.5 17.3333 1.61929 17.3333 3C17.3333 4.38071 16.214 5.5 14.8333 5.5H3.16663C1.78591 5.5 0.666626 4.38071 0.666626 3Z" fill="#454056"/>
<path fill-rule="evenodd" clip-rule="evenodd" d="M3.16663 3.83333C3.62686 3.83333 3.99995 4.20637 3.99995 4.6666V12.9999C3.99995 13.221 4.08775 13.4329 4.24403 13.5892C4.40031 13.7455 4.61227 13.8333 4.83328 13.8333H13.1666C13.3876 13.8333 13.5996 13.7455 13.7559 13.5892C13.9122 13.4329 14 13.221 14 12.9999V4.6666C14 4.20637 14.3731 3.83333 14.8333 3.83333C15.2935 3.83333 15.6666 4.20637 15.6666 4.6666V12.9999C15.6666 13.663 15.4032 14.2989 14.9344 14.7677C14.4655 15.2365 13.8297 15.4999 13.1666 15.4999H4.83328C4.17024 15.4999 3.53436 15.2365 3.06552 14.7677C2.59668 14.2989 2.33328 13.663 2.33328 12.9999V4.6666C2.33328 4.20637 2.70639 3.83333 3.16663 3.83333Z" fill="#454056"/>
<path fill-rule="evenodd" clip-rule="evenodd" d="M6.49997 7.99997C6.49997 7.53973 6.87306 7.16664 7.3333 7.16664H10.6666C11.1269 7.16664 11.5 7.53973 11.5 7.99997C11.5 8.46021 11.1269 8.8333 10.6666 8.8333H7.3333C6.87306 8.8333 6.49997 8.46021 6.49997 7.99997Z" fill="#454056"/>
</svg>
