<svg width="14" height="16" viewBox="0 0 14 16" fill="none" xmlns="http://www.w3.org/2000/svg">
<path fill-rule="evenodd" clip-rule="evenodd" d="M2.5 3.49999C2.08579 3.49999 1.75 3.83578 1.75 4.24999V13.25C1.75 13.6642 2.08579 14 2.5 14H11.5C11.9142 14 12.25 13.6642 12.25 13.25V4.24999C12.25 3.83578 11.9142 3.49999 11.5 3.49999H2.5ZM0.25 4.24999C0.25 3.00735 1.25736 1.99999 2.5 1.99999H11.5C12.7426 1.99999 13.75 3.00735 13.75 4.24999V13.25C13.75 14.4926 12.7426 15.5 11.5 15.5H2.5C1.25736 15.5 0.25 14.4926 0.25 13.25V4.24999Z" fill="#9691A4"/>
<path fill-rule="evenodd" clip-rule="evenodd" d="M10 0.5C10.4142 0.5 10.75 0.835786 10.75 1.25V4.25C10.75 4.66421 10.4142 5 10 5C9.58579 5 9.25 4.66421 9.25 4.25V1.25C9.25 0.835786 9.58579 0.5 10 0.5Z" fill="#9691A4"/>
<path fill-rule="evenodd" clip-rule="evenodd" d="M4.00003 0.5C4.41424 0.5 4.75003 0.835786 4.75003 1.25V4.25C4.75003 4.66421 4.41424 5 4.00003 5C3.58581 5 3.25003 4.66421 3.25003 4.25V1.25C3.25003 0.835786 3.58581 0.5 4.00003 0.5Z" fill="#9691A4"/>
<path fill-rule="evenodd" clip-rule="evenodd" d="M0.25 7.24999C0.25 6.83578 0.585786 6.49999 1 6.49999H13C13.4142 6.49999 13.75 6.83578 13.75 7.24999C13.75 7.66421 13.4142 7.99999 13 7.99999H1C0.585786 7.99999 0.25 7.66421 0.25 7.24999Z" fill="#9691A4"/>
</svg>
