<svg width="34" height="32" viewBox="0 0 34 32" fill="none" xmlns="http://www.w3.org/2000/svg">
<path fill-rule="evenodd" clip-rule="evenodd" d="M17.0002 15.3333C15.1592 15.3333 13.6668 16.8257 13.6668 18.6667C13.6668 20.5076 15.1592 22 17.0002 22C18.8411 22 20.3335 20.5076 20.3335 18.6667C20.3335 16.8257 18.8411 15.3333 17.0002 15.3333ZM10.3335 18.6667C10.3335 14.9848 13.3183 12 17.0002 12C20.6821 12 23.6668 14.9848 23.6668 18.6667C23.6668 22.3486 20.6821 25.3333 17.0002 25.3333C13.3183 25.3333 10.3335 22.3486 10.3335 18.6667Z" fill="#9691A4"/>
<path fill-rule="evenodd" clip-rule="evenodd" d="M11.3098 2.97629C11.9349 2.35117 12.7828 1.99998 13.6668 1.99998H17.0002C17.9206 1.99998 18.6668 2.74617 18.6668 3.66665C18.6668 4.58712 17.9206 5.33331 17.0002 5.33331L13.6668 5.33331C13.6668 6.6594 13.14 7.93117 12.2024 8.86885C11.2647 9.80653 9.99291 10.3333 8.66683 10.3333H5.3335C4.89147 10.3333 4.46755 10.5089 4.15498 10.8215C3.84242 11.134 3.66683 11.558 3.66683 12V27C3.66683 27.442 3.84242 27.8659 4.15498 28.1785C4.46755 28.4911 4.89147 28.6666 5.3335 28.6666H28.6668C29.1089 28.6666 29.5328 28.4911 29.8453 28.1785C30.1579 27.8659 30.3335 27.442 30.3335 27V15.3333C30.3335 14.4128 31.0797 13.6666 32.0002 13.6666C32.9206 13.6666 33.6668 14.4128 33.6668 15.3333V27C33.6668 28.3261 33.1401 29.5978 32.2024 30.5355C31.2647 31.4732 29.9929 32 28.6668 32H5.3335C4.00741 32 2.73564 31.4732 1.79796 30.5355C0.860281 29.5978 0.333496 28.3261 0.333496 27V12C0.333496 10.6739 0.86028 9.40213 1.79796 8.46445C2.73564 7.52676 4.00741 6.99998 5.3335 6.99998H8.66683C9.10886 6.99998 9.53278 6.82439 9.84534 6.51183C10.1579 6.19926 10.3335 5.77534 10.3335 5.33331C10.3335 4.44926 10.6847 3.60141 11.3098 2.97629Z" fill="#9691A4"/>
<path fill-rule="evenodd" clip-rule="evenodd" d="M20.3335 6.99992C20.3335 6.07945 21.0797 5.33325 22.0002 5.33325H32.0002C32.9206 5.33325 33.6668 6.07945 33.6668 6.99992C33.6668 7.9204 32.9206 8.66659 32.0002 8.66659H22.0002C21.0797 8.66659 20.3335 7.9204 20.3335 6.99992Z" fill="#9691A4"/>
<path fill-rule="evenodd" clip-rule="evenodd" d="M27.0002 0.333252C27.9206 0.333252 28.6668 1.07944 28.6668 1.99992V11.9999C28.6668 12.9204 27.9206 13.6666 27.0002 13.6666C26.0797 13.6666 25.3335 12.9204 25.3335 11.9999V1.99992C25.3335 1.07944 26.0797 0.333252 27.0002 0.333252Z" fill="#9691A4"/>
</svg>
