<svg width="48" height="48" viewBox="0 0 48 48" fill="none" xmlns="http://www.w3.org/2000/svg">
<rect width="48" height="48" rx="24" fill="white"/>
<g clip-path="url(#clip0_2236_2263)">
<path d="M34.6957 20.0868H13.3043C12.5851 20.0868 12 20.672 12 21.3912V33.1303C12 33.8495 12.5851 34.4347 13.3043 34.4347H34.6957C35.4149 34.4347 36 33.8495 36 33.1303V21.3912C36 20.672 35.4149 20.0868 34.6957 20.0868ZM34.4348 32.8694H13.5652V21.652H34.4347L34.4348 32.8694Z" fill="#25AAE1"/>
<path d="M15.6522 20.0868C15.2199 20.0868 14.8695 20.4372 14.8695 20.8695V21.6521C14.8695 22.2372 14.4112 22.6956 13.8261 22.6956H12.7826C12.3503 22.6955 12 23.0459 12 23.4782C12 23.9104 12.3503 24.2608 12.7826 24.2608H13.8261C15.2646 24.2608 16.4348 23.0905 16.4348 21.6521V20.8695C16.4348 20.4372 16.0845 20.0868 15.6522 20.0868Z" fill="#25AAE1"/>
<path d="M35.2174 22.6955H34.4348C33.8496 22.6955 33.3913 22.2372 33.3913 21.652V20.8694C33.3913 20.4371 33.041 20.0868 32.6087 20.0868C32.1764 20.0868 31.826 20.4371 31.826 20.8694V21.652C31.826 23.0905 32.9963 24.2607 34.4347 24.2607H35.2174C35.6496 24.2607 36 23.9104 36 23.4781C36 23.0458 35.6497 22.6955 35.2174 22.6955Z" fill="#25AAE1"/>
<path d="M13.8261 30.2608H12.7826C12.3503 30.2608 12 30.6111 12 31.0434C12 31.4757 12.3503 31.826 12.7826 31.826H13.8261C14.4113 31.826 14.8696 32.2844 14.8696 32.8695V33.6521C14.8696 34.0844 15.2199 34.4347 15.6522 34.4347C16.0845 34.4347 16.4348 34.0844 16.4348 33.6521V32.8695C16.4348 31.431 15.2645 30.2608 13.8261 30.2608Z" fill="#25AAE1"/>
<path d="M35.2174 30.2608H34.1739C32.7354 30.2608 31.5652 31.431 31.5652 32.8695V33.6521C31.5652 34.0844 31.9155 34.4347 32.3478 34.4347C32.7801 34.4347 33.1305 34.0844 33.1305 33.6521V32.8695C33.1305 32.2843 33.5888 31.826 34.1739 31.826H35.2174C35.6497 31.826 36 31.4756 36 31.0433C36 30.6111 35.6497 30.2608 35.2174 30.2608Z" fill="#25AAE1"/>
<path d="M33.1305 16.6954H14.8696C14.4373 16.6954 14.0869 17.0458 14.0869 17.4781C14.0869 17.9103 14.4373 18.2607 14.8696 18.2607H33.1304C33.5627 18.2607 33.913 17.9103 33.913 17.4781C33.913 17.0458 33.5627 16.6954 33.1305 16.6954Z" fill="#25AAE1"/>
<path d="M30.7826 13.5649H17.2173C16.7851 13.5649 16.4347 13.9153 16.4347 14.3476C16.4347 14.7798 16.7851 15.1302 17.2173 15.1302H30.7825C31.2148 15.1302 31.5652 14.7798 31.5652 14.3476C31.5652 13.9153 31.2148 13.5649 30.7826 13.5649Z" fill="#25AAE1"/>
<path d="M24.0001 22.9302C21.6267 22.9302 19.6957 24.8609 19.6957 27.2345C19.6957 29.6079 21.6267 31.5389 24.0001 31.5389C26.3734 31.5389 28.3044 29.6079 28.3044 27.2345C28.3044 24.8611 26.3734 22.9302 24.0001 22.9302ZM24.0001 29.9736C22.4896 29.9736 21.2609 28.745 21.2609 27.2345C21.2609 25.724 22.4896 24.4951 24.0001 24.4951C25.5105 24.4951 26.7392 25.7241 26.7392 27.2345C26.7392 28.745 25.5105 29.9736 24.0001 29.9736Z" fill="#25AAE1"/>
</g>
<defs>
<clipPath id="clip0_2236_2263">
<rect width="24" height="24" fill="white" transform="translate(12 12)"/>
</clipPath>
</defs>
</svg>
