<svg width="16" height="15" viewBox="0 0 16 15" fill="none" xmlns="http://www.w3.org/2000/svg">
<path fill-rule="evenodd" clip-rule="evenodd" d="M8 1.5C4.68629 1.5 2 4.18629 2 7.5C2 10.8137 4.68629 13.5 8 13.5C11.3137 13.5 14 10.8137 14 7.5C14 4.18629 11.3137 1.5 8 1.5ZM0.5 7.5C0.5 3.35786 3.85786 0 8 0C12.1421 0 15.5 3.35786 15.5 7.5C15.5 11.6421 12.1421 15 8 15C3.85786 15 0.5 11.6421 0.5 7.5Z" fill="#9691A4"/>
<path fill-rule="evenodd" clip-rule="evenodd" d="M5.96967 5.46966C6.26257 5.17676 6.73744 5.17676 7.03033 5.46966L8 6.43933L8.96967 5.46966C9.26257 5.17676 9.73744 5.17676 10.0303 5.46966C10.3232 5.76255 10.3232 6.23742 10.0303 6.53032L9.06066 7.49999L10.0303 8.46966C10.3232 8.76255 10.3232 9.23742 10.0303 9.53032C9.73744 9.82321 9.26257 9.82321 8.96967 9.53032L8 8.56065L7.03033 9.53032C6.73744 9.82321 6.26257 9.82321 5.96967 9.53032C5.67678 9.23742 5.67678 8.76255 5.96967 8.46966L6.93934 7.49999L5.96967 6.53032C5.67678 6.23742 5.67678 5.76255 5.96967 5.46966Z" fill="#9691A4"/>
</svg>
