<svg width="12" height="12" viewBox="0 0 12 12" fill="none" xmlns="http://www.w3.org/2000/svg">
<path fill-rule="evenodd" clip-rule="evenodd" d="M2.5 2.50008C2.17783 2.50008 1.91667 2.76124 1.91667 3.08341V10.0834C1.91667 10.4056 2.17783 10.6667 2.5 10.6667H9.5C9.82217 10.6667 10.0833 10.4056 10.0833 10.0834V3.08341C10.0833 2.76124 9.82217 2.50008 9.5 2.50008H2.5ZM0.75 3.08341C0.75 2.11691 1.5335 1.33341 2.5 1.33341H9.5C10.4665 1.33341 11.25 2.11691 11.25 3.08341V10.0834C11.25 11.0499 10.4665 11.8334 9.5 11.8334H2.5C1.5335 11.8334 0.75 11.0499 0.75 10.0834V3.08341Z" fill="#9691A4"/>
<path fill-rule="evenodd" clip-rule="evenodd" d="M8.33333 0.166748C8.6555 0.166748 8.91667 0.427915 8.91667 0.750081V3.08341C8.91667 3.40558 8.6555 3.66675 8.33333 3.66675C8.01117 3.66675 7.75 3.40558 7.75 3.08341V0.750081C7.75 0.427915 8.01117 0.166748 8.33333 0.166748Z" fill="#9691A4"/>
<path fill-rule="evenodd" clip-rule="evenodd" d="M3.66669 0.166748C3.98885 0.166748 4.25002 0.427915 4.25002 0.750081V3.08341C4.25002 3.40558 3.98885 3.66675 3.66669 3.66675C3.34452 3.66675 3.08335 3.40558 3.08335 3.08341V0.750081C3.08335 0.427915 3.34452 0.166748 3.66669 0.166748Z" fill="#9691A4"/>
<path fill-rule="evenodd" clip-rule="evenodd" d="M0.75 5.41674C0.75 5.09458 1.01117 4.83341 1.33333 4.83341H10.6667C10.9888 4.83341 11.25 5.09458 11.25 5.41674C11.25 5.73891 10.9888 6.00008 10.6667 6.00008H1.33333C1.01117 6.00008 0.75 5.73891 0.75 5.41674Z" fill="#9691A4"/>
</svg>
