<svg width="14" height="16" viewBox="0 0 14 16" fill="none" xmlns="http://www.w3.org/2000/svg">
<path fill-rule="evenodd" clip-rule="evenodd" d="M0.25 4.25003C0.25 3.83581 0.585786 3.50003 1 3.50003H13C13.4142 3.50003 13.75 3.83581 13.75 4.25003C13.75 4.66424 13.4142 5.00003 13 5.00003H1C0.585786 5.00003 0.25 4.66424 0.25 4.25003Z" fill="#25AAE1"/>
<path fill-rule="evenodd" clip-rule="evenodd" d="M5.5 6.49997C5.91421 6.49997 6.25 6.83576 6.25 7.24997V11.75C6.25 12.1642 5.91421 12.5 5.5 12.5C5.08579 12.5 4.75 12.1642 4.75 11.75V7.24997C4.75 6.83576 5.08579 6.49997 5.5 6.49997Z" fill="#25AAE1"/>
<path fill-rule="evenodd" clip-rule="evenodd" d="M8.50003 6.49997C8.91424 6.49997 9.25003 6.83576 9.25003 7.24997V11.75C9.25003 12.1642 8.91424 12.5 8.50003 12.5C8.08581 12.5 7.75003 12.1642 7.75003 11.75V7.24997C7.75003 6.83576 8.08581 6.49997 8.50003 6.49997Z" fill="#25AAE1"/>
<path fill-rule="evenodd" clip-rule="evenodd" d="M1.68774 3.50262C2.10053 3.46822 2.46304 3.77496 2.49744 4.18774L3.24744 13.1877C3.24916 13.2085 3.25003 13.2292 3.25003 13.25C3.25003 13.4489 3.32904 13.6397 3.4697 13.7804C3.61035 13.921 3.80111 14 4.00003 14H10C10.1989 14 10.3897 13.921 10.5304 13.7804C10.671 13.6397 10.75 13.4489 10.75 13.25C10.75 13.2292 10.7509 13.2085 10.7526 13.1877L11.5026 4.18774C11.537 3.77496 11.8995 3.46822 12.3123 3.50262C12.7251 3.53702 13.0318 3.89953 12.9974 4.31231L12.2498 13.2844C12.2409 13.8687 12.0049 14.4272 11.591 14.841C11.1691 15.263 10.5968 15.5 10 15.5H4.00003C3.40329 15.5 2.83099 15.263 2.40904 14.841C1.99518 14.4272 1.7592 13.8687 1.75029 13.2844L1.00262 4.31231C0.968219 3.89953 1.27496 3.53702 1.68774 3.50262Z" fill="#25AAE1"/>
<path fill-rule="evenodd" clip-rule="evenodd" d="M4.43935 0.93934C4.72066 0.658035 5.10219 0.5 5.50001 0.5H8.50001C8.89784 0.5 9.27937 0.658035 9.56067 0.93934C9.84198 1.22064 10 1.60217 10 2V4.25C10 4.66421 9.66423 5 9.25001 5C8.8358 5 8.50001 4.66421 8.50001 4.25V2H5.50001L5.50001 4.25C5.50001 4.66421 5.16423 5 4.75001 5C4.3358 5 4.00001 4.66421 4.00001 4.25V2C4.00001 1.60217 4.15805 1.22064 4.43935 0.93934Z" fill="#25AAE1"/>
</svg>
