<svg width="20" height="18" viewBox="0 0 20 18" fill="none" xmlns="http://www.w3.org/2000/svg">
<path fill-rule="evenodd" clip-rule="evenodd" d="M0 2C0 0.895431 0.895431 0 2 0H18C19.1046 0 20 0.895431 20 2V12C20 13.1046 19.1046 14 18 14H2C0.895431 14 0 13.1046 0 12V2ZM18 2H2V12H18V2Z" fill="#9691A4"/>
<path fill-rule="evenodd" clip-rule="evenodd" d="M3.99998 16.9999C3.99998 16.4476 4.4477 15.9999 4.99998 15.9999H15C15.5523 15.9999 16 16.4476 16 16.9999C16 17.5522 15.5523 17.9999 15 17.9999H4.99998C4.4477 17.9999 3.99998 17.5522 3.99998 16.9999Z" fill="#9691A4"/>
<path fill-rule="evenodd" clip-rule="evenodd" d="M7 12C7.55229 12 8 12.4477 8 13V17C8 17.5523 7.55229 18 7 18C6.44772 18 6 17.5523 6 17V13C6 12.4477 6.44772 12 7 12Z" fill="#9691A4"/>
<path fill-rule="evenodd" clip-rule="evenodd" d="M13 12C13.5523 12 14 12.4477 14 13V17C14 17.5523 13.5523 18 13 18C12.4477 18 12 17.5523 12 17V13C12 12.4477 12.4477 12 13 12Z" fill="#9691A4"/>
</svg>
