<svg width="19" height="18" viewBox="0 0 19 18" fill="none" xmlns="http://www.w3.org/2000/svg">
<path fill-rule="evenodd" clip-rule="evenodd" d="M14.9633 3.70499e-05C15.7232 -0.0491165 16.4118 0.274 16.9298 0.791966C17.45 1.31221 17.7973 2.01957 17.9736 2.7718C17.9761 2.78247 17.9784 2.79318 17.9806 2.80392L18.9806 7.80392C18.9935 7.86849 19 7.93418 19 8.00004C19 8.79569 18.6839 9.55875 18.1213 10.1214C17.5587 10.684 16.7957 11 16 11H14V15C14 15.7957 13.6839 16.5587 13.1213 17.1214C12.5587 17.684 11.7957 18 11 18C10.2043 18 9.44129 17.684 8.87868 17.1214C8.31607 16.5587 8 15.7957 8 15V14C8 13.2044 7.68393 12.4413 7.12132 11.8787C6.55871 11.3161 5.79565 11 5 11H2C1.46957 11 0.960859 10.7893 0.585786 10.4142C0.210714 10.0392 0 9.53047 0 9.00004V2.00004C0 1.4696 0.210714 0.960896 0.585786 0.585824C0.960859 0.210751 1.46957 3.70499e-05 2 3.70499e-05H4C4.53043 3.70499e-05 5.03914 0.210751 5.41421 0.585824C5.48152 0.653134 5.54354 0.724748 5.6 0.80002C6.28831 0.28377 7.12953 3.70499e-05 8 3.70499e-05H14.9633ZM4 2.00004H2L2 9.00004H4V2.00004ZM6 9.10104V4.00004C6 3.4696 6.21071 2.9609 6.58579 2.58582C6.96086 2.21075 7.46957 2.00004 8 2.00004H15C15.0283 2.00004 15.0566 1.99884 15.0848 1.99644C15.1715 1.98906 15.323 2.0136 15.5155 2.20618C15.7146 2.40527 15.911 2.74632 16.0229 3.2134L16.9966 8.08218C16.9773 8.31731 16.8752 8.53906 16.7071 8.70714C16.5196 8.89468 16.2652 9.00004 16 9.00004H13C12.4477 9.00004 12 9.44775 12 10V15C12 15.2653 11.8946 15.5196 11.7071 15.7071C11.5196 15.8947 11.2652 16 11 16C10.7348 16 10.4804 15.8947 10.2929 15.7071C10.1054 15.5196 10 15.2653 10 15V14C10 12.674 9.47322 11.4022 8.53553 10.4645C7.83715 9.76612 6.95344 9.29567 6 9.10104Z" fill="#9691A4"/>
</svg>
