<svg width="4" height="12" viewBox="0 0 4 12" fill="none" xmlns="http://www.w3.org/2000/svg">
<path fill-rule="evenodd" clip-rule="evenodd" d="M1.99992 0.000244082C2.7363 0.000244115 3.33325 0.597198 3.33325 1.33358C3.33325 2.06996 2.7363 2.66691 1.99992 2.66691C1.26354 2.66691 0.666585 2.06996 0.666585 1.33358C0.666585 0.597198 1.26354 0.00024405 1.99992 0.000244082Z" fill="#454056"/>
<path fill-rule="evenodd" clip-rule="evenodd" d="M1.99992 4.66691C2.7363 4.66691 3.33325 5.26386 3.33325 6.00024C3.33325 6.73662 2.7363 7.33357 1.99992 7.33357C1.26354 7.33357 0.666585 6.73662 0.666585 6.00024C0.666585 5.26386 1.26354 4.66691 1.99992 4.66691Z" fill="#454056"/>
<path fill-rule="evenodd" clip-rule="evenodd" d="M1.99992 9.33358C2.7363 9.33358 3.33325 9.93053 3.33325 10.6669C3.33325 11.4033 2.7363 12.0002 1.99992 12.0002C1.26354 12.0002 0.666584 11.4033 0.666585 10.6669C0.666585 9.93053 1.26354 9.33358 1.99992 9.33358Z" fill="#454056"/>
</svg>
