<svg width="4" height="12" viewBox="0 0 4 12" fill="none" xmlns="http://www.w3.org/2000/svg">
<path fill-rule="evenodd" clip-rule="evenodd" d="M1.99992 -5.82819e-08C2.7363 -2.60937e-08 3.33325 0.596954 3.33325 1.33333C3.33325 2.06971 2.7363 2.66667 1.99992 2.66667C1.26354 2.66667 0.666585 2.06971 0.666585 1.33333C0.666585 0.596954 1.26354 -9.047e-08 1.99992 -5.82819e-08Z" fill="#25AAE1"/>
<path fill-rule="evenodd" clip-rule="evenodd" d="M1.99992 4.66666C2.7363 4.66666 3.33325 5.26362 3.33325 6C3.33325 6.73638 2.7363 7.33333 1.99992 7.33333C1.26354 7.33333 0.666585 6.73638 0.666585 6C0.666585 5.26362 1.26354 4.66666 1.99992 4.66666Z" fill="#25AAE1"/>
<path fill-rule="evenodd" clip-rule="evenodd" d="M1.99992 9.33333C2.7363 9.33333 3.33325 9.93029 3.33325 10.6667C3.33325 11.403 2.7363 12 1.99992 12C1.26354 12 0.666584 11.403 0.666585 10.6667C0.666585 9.93029 1.26354 9.33333 1.99992 9.33333Z" fill="#25AAE1"/>
</svg>
