<svg width="13" height="14" viewBox="0 0 13 14" fill="none" xmlns="http://www.w3.org/2000/svg">
<path fill-rule="evenodd" clip-rule="evenodd" d="M0.585786 4.08576C0.960859 3.71069 1.46957 3.49998 2 3.49998H4C4.36819 3.49998 4.66667 3.79845 4.66667 4.16664C4.66667 4.53483 4.36819 4.83331 4 4.83331H2C1.82319 4.83331 1.65362 4.90355 1.5286 5.02857C1.40357 5.1536 1.33333 5.32317 1.33333 5.49998V11.5C1.33333 11.6768 1.40357 11.8464 1.5286 11.9714C1.65362 12.0964 1.82319 12.1666 2 12.1666H8C8.17681 12.1666 8.34638 12.0964 8.47141 11.9714C8.59643 11.8464 8.66667 11.6768 8.66667 11.5V9.49998C8.66667 9.13179 8.96515 8.83331 9.33333 8.83331C9.70152 8.83331 10 9.13179 10 9.49998V11.5C10 12.0304 9.78929 12.5391 9.41422 12.9142C9.03914 13.2893 8.53043 13.5 8 13.5H2C1.46957 13.5 0.960859 13.2893 0.585786 12.9142C0.210714 12.5391 0 12.0304 0 11.5V5.49998C0 4.96955 0.210714 4.46084 0.585786 4.08576Z" fill="#9691A4"/>
<path fill-rule="evenodd" clip-rule="evenodd" d="M9.19527 1.36192C9.58551 0.971676 10.1148 0.752441 10.6667 0.752441C11.2186 0.752441 11.7478 0.971676 12.1381 1.36192C12.5283 1.75216 12.7476 2.28144 12.7476 2.83332C12.7476 3.38521 12.5283 3.91449 12.1381 4.30473L6.47141 9.97139C6.34638 10.0964 6.17682 10.1667 6 10.1667H4C3.63181 10.1667 3.33334 9.86818 3.33334 9.49999V7.49999C3.33334 7.32318 3.40357 7.15361 3.5286 7.02858L9.19527 1.36192ZM10.6667 2.08577C10.4684 2.08577 10.2783 2.16453 10.1381 2.30473L4.66667 7.77613V8.83332H5.72386L11.1953 3.36192C11.3355 3.22172 11.4142 3.03158 11.4142 2.83332C11.4142 2.63506 11.3355 2.44492 11.1953 2.30473C11.0551 2.16453 10.8649 2.08577 10.6667 2.08577Z" fill="#9691A4"/>
<path fill-rule="evenodd" clip-rule="evenodd" d="M8.19527 2.36193C8.45562 2.10158 8.87773 2.10158 9.13808 2.36193L11.1381 4.36193C11.3984 4.62228 11.3984 5.04439 11.1381 5.30474C10.8777 5.56509 10.4556 5.56509 10.1953 5.30474L8.19527 3.30474C7.93492 3.04439 7.93492 2.62228 8.19527 2.36193Z" fill="#9691A4"/>
</svg>
