<svg width="17" height="17" viewBox="0 0 17 17" fill="none" xmlns="http://www.w3.org/2000/svg">
<path fill-rule="evenodd" clip-rule="evenodd" d="M1.23223 4.73233C1.70107 4.26349 2.33696 4.0001 3 4.0001H5.5C5.96024 4.0001 6.33333 4.37319 6.33333 4.83343C6.33333 5.29367 5.96024 5.66676 5.5 5.66676H3C2.77899 5.66676 2.56702 5.75456 2.41074 5.91084C2.25446 6.06712 2.16667 6.27908 2.16667 6.5001V14.0001C2.16667 14.2211 2.25446 14.4331 2.41074 14.5894C2.56702 14.7456 2.77899 14.8334 3 14.8334H10.5C10.721 14.8334 10.933 14.7456 11.0893 14.5894C11.2455 14.4331 11.3333 14.2211 11.3333 14.0001V11.5001C11.3333 11.0399 11.7064 10.6668 12.1667 10.6668C12.6269 10.6668 13 11.0399 13 11.5001V14.0001C13 14.6631 12.7366 15.299 12.2678 15.7679C11.7989 16.2367 11.163 16.5001 10.5 16.5001H3C2.33696 16.5001 1.70107 16.2367 1.23223 15.7679C0.763392 15.299 0.5 14.6631 0.5 14.0001V6.5001C0.5 5.83705 0.763392 5.20117 1.23223 4.73233Z" fill="#454056"/>
<path fill-rule="evenodd" clip-rule="evenodd" d="M11.9941 1.32752C12.4819 0.839717 13.1435 0.565674 13.8333 0.565674C14.5232 0.565674 15.1848 0.839717 15.6726 1.32752C16.1604 1.81532 16.4344 2.47692 16.4344 3.16677C16.4344 3.85663 16.1604 4.51823 15.6726 5.00603L8.58926 12.0894C8.43298 12.2456 8.22102 12.3334 8 12.3334H5.5C5.03977 12.3334 4.66667 11.9603 4.66667 11.5001V9.00011C4.66667 8.77909 4.75447 8.56713 4.91075 8.41085L11.9941 1.32752ZM13.8333 2.23234C13.5855 2.23234 13.3478 2.33079 13.1726 2.50603L6.33334 9.34529V10.6668H7.65483L14.4941 3.82752C14.6693 3.65228 14.7678 3.4146 14.7678 3.16677C14.7678 2.91895 14.6693 2.68127 14.4941 2.50603C14.3188 2.33079 14.0812 2.23234 13.8333 2.23234Z" fill="#454056"/>
<path fill-rule="evenodd" clip-rule="evenodd" d="M10.7441 2.57754C11.0695 2.2521 11.5972 2.2521 11.9226 2.57754L14.4226 5.07754C14.748 5.40297 14.748 5.93061 14.4226 6.25605C14.0972 6.58149 13.5695 6.58149 13.2441 6.25605L10.7441 3.75605C10.4186 3.43061 10.4186 2.90297 10.7441 2.57754Z" fill="#454056"/>
</svg>
