<svg width="14" height="18" viewBox="0 0 14 18" fill="none" xmlns="http://www.w3.org/2000/svg">
<path fill-rule="evenodd" clip-rule="evenodd" d="M8.66658 0.666626C9.12682 0.666626 9.49992 1.03972 9.49992 1.49996V4.83329H12.8333C13.2935 4.83329 13.6666 5.20639 13.6666 5.66663C13.6666 6.12686 13.2935 6.49996 12.8333 6.49996H9.49992C9.05789 6.49996 8.63397 6.32436 8.32141 6.0118C8.00885 5.69924 7.83325 5.27532 7.83325 4.83329V1.49996C7.83325 1.03972 8.20635 0.666626 8.66658 0.666626Z" fill="#454056"/>
<path fill-rule="evenodd" clip-rule="evenodd" d="M2.83325 2.33329C2.61224 2.33329 2.40028 2.42109 2.244 2.57737C2.08772 2.73365 1.99992 2.94561 1.99992 3.16663V14.8333C1.99992 15.0543 2.08772 15.2663 2.244 15.4225C2.40028 15.5788 2.61224 15.6666 2.83325 15.6666H11.1666C11.3876 15.6666 11.5996 15.5788 11.7558 15.4225C11.9121 15.2663 11.9999 15.0543 11.9999 14.8333V6.0118L8.32141 2.33329H2.83325ZM1.06549 1.39886C1.53433 0.930018 2.17021 0.666626 2.83325 0.666626H8.66658C8.8876 0.666626 9.09956 0.754423 9.25584 0.910704L13.4225 5.07737C13.5788 5.23365 13.6666 5.44561 13.6666 5.66663L13.6666 14.8333C13.6666 15.4963 13.4032 16.1322 12.9344 16.6011C12.4655 17.0699 11.8296 17.3333 11.1666 17.3333H2.83325C2.17021 17.3333 1.53433 17.0699 1.06549 16.6011C0.596644 16.1322 0.333252 15.4963 0.333252 14.8333V3.16663C0.333252 2.50358 0.596644 1.8677 1.06549 1.39886Z" fill="#454056"/>
</svg>
