<svg width="18" height="18" viewBox="0 0 18 18" fill="none" xmlns="http://www.w3.org/2000/svg">
<path fill-rule="evenodd" clip-rule="evenodd" d="M8.41061 0.910704C8.73604 0.585267 9.26368 0.585267 9.58912 0.910704L17.0891 8.4107C17.3274 8.64903 17.3987 9.00747 17.2698 9.31886C17.1408 9.63026 16.8369 9.83329 16.4999 9.83329H14.8332C14.373 9.83329 13.9999 9.4602 13.9999 8.99996C13.9999 8.64262 14.2248 8.33781 14.5408 8.21938L8.99986 2.67847L3.45895 8.21938C3.77494 8.33781 3.99986 8.64262 3.99986 8.99996C3.99986 9.4602 3.62677 9.83329 3.16653 9.83329H1.49986C1.16281 9.83329 0.858946 9.63026 0.729962 9.31886C0.600978 9.00747 0.672274 8.64903 0.910606 8.4107L8.41061 0.910704Z" fill="#25AAE1"/>
<path fill-rule="evenodd" clip-rule="evenodd" d="M3.16652 8.16663C3.62676 8.16663 3.99986 8.53972 3.99986 8.99996L3.99985 14.8333C3.99985 15.0543 4.08765 15.2663 4.24393 15.4225C4.40021 15.5788 4.61217 15.6666 4.83319 15.6666H13.1665C13.3875 15.6666 13.5995 15.5788 13.7558 15.4225C13.9121 15.2663 13.9999 15.0543 13.9999 14.8333L13.9999 8.99996C13.9999 8.53972 14.3729 8.16663 14.8332 8.16663C15.2934 8.16663 15.6665 8.53972 15.6665 8.99996V14.8333C15.6665 15.4963 15.4031 16.1322 14.9343 16.6011C14.4654 17.0699 13.8296 17.3333 13.1665 17.3333H4.83319C4.17015 17.3333 3.53426 17.0699 3.06542 16.6011C2.59658 16.1322 2.33319 15.4963 2.33319 14.8333V8.99996C2.33319 8.53972 2.70628 8.16663 3.16652 8.16663Z" fill="#25AAE1"/>
<path fill-rule="evenodd" clip-rule="evenodd" d="M6.49987 8.99996C6.49987 8.53972 6.87297 8.16663 7.3332 8.16663H10.6665C11.1268 8.16663 11.4999 8.53972 11.4999 8.99996V12.3333C11.4999 12.7935 11.1268 13.1666 10.6665 13.1666H7.3332C6.87297 13.1666 6.49987 12.7935 6.49987 12.3333V8.99996ZM8.16654 9.83329V11.5H9.8332V9.83329H8.16654Z" fill="#25AAE1"/>
</svg>
