<svg width="24" height="24" viewBox="0 0 24 24" fill="none" xmlns="http://www.w3.org/2000/svg">
<path d="M22.1226 0.860352H1.87744C0.824812 0.860352 0 1.68516 0 2.73779V17.1941C0 18.2468 0.824812 19.0716 1.87744 19.0716H22.1226C23.1752 19.0716 24 18.2468 24 17.1941V2.73779C24 1.68516 23.1752 0.860352 22.1226 0.860352ZM22.1226 17.1941H1.87744L1.86305 2.73905C1.86305 2.73905 1.86745 2.73779 1.87744 2.73779H22.1226V17.1941Z" fill="#25AAE1"/>
<path d="M12.9231 18.1329H11.0457V22.2007H12.9231V18.1329Z" fill="#25AAE1"/>
<path d="M15.3952 21.2618H8.57376C8.05527 21.2618 7.63504 21.6821 7.63504 22.2005C7.63504 22.719 8.05527 23.1393 8.57376 23.1393H15.3952C15.9136 23.1393 16.3339 22.719 16.3339 22.2005C16.3339 21.6821 15.9136 21.2618 15.3952 21.2618Z" fill="#25AAE1"/>
<path d="M23.03 12.4066H0.938717V14.2841H23.03V12.4066Z" fill="#25AAE1"/>
</svg>
