<svg width="19" height="18" viewBox="0 0 19 18" fill="none" xmlns="http://www.w3.org/2000/svg">
<path fill-rule="evenodd" clip-rule="evenodd" d="M11 2C10.7348 2 10.4804 2.10536 10.2929 2.29289C10.1054 2.48043 10 2.73478 10 3V4C10 5.32608 9.47322 6.59785 8.53553 7.53553C7.83715 8.23392 6.95344 8.70436 6 8.899V14C6 14.5304 6.21071 15.0391 6.58579 15.4142C6.96086 15.7893 7.46957 16 8 16H15C15.0283 16 15.0566 16.0012 15.0848 16.0036C15.1715 16.011 15.323 15.9864 15.5155 15.7939C15.7146 15.5948 15.911 15.2537 16.0229 14.7866L16.9966 9.91786C16.9773 9.68272 16.8752 9.46097 16.7071 9.29289C16.5196 9.10536 16.2652 9 16 9H13C12.4477 9 12 8.55229 12 8V3C12 2.73478 11.8946 2.48043 11.7071 2.29289C11.5196 2.10536 11.2652 2 11 2ZM5.6 17.2C5.54354 17.2753 5.48152 17.3469 5.41421 17.4142C5.03914 17.7893 4.53043 18 4 18H2C1.46957 18 0.96086 17.7893 0.585786 17.4142C0.210713 17.0391 0 16.5304 0 16V9C0 8.46957 0.210714 7.96086 0.585786 7.58579C0.960859 7.21072 1.46957 7 2 7H5C5.79565 7 6.55871 6.68393 7.12132 6.12132C7.68393 5.55871 8 4.79565 8 4V3C8 2.20435 8.31607 1.44129 8.87868 0.87868C9.44129 0.316071 10.2044 0 11 0C11.7956 0 12.5587 0.316071 13.1213 0.87868C13.6839 1.44129 14 2.20435 14 3V7H16C16.7957 7 17.5587 7.31607 18.1213 7.87868C18.6839 8.44129 19 9.20435 19 10C19 10.0659 18.9935 10.1315 18.9806 10.1961L17.9806 15.1961C17.9784 15.2069 17.9761 15.2176 17.9736 15.2282C17.7973 15.9805 17.45 16.6878 16.9298 17.2081C16.4118 17.726 15.7232 18.0492 14.9633 18H8C7.12953 18 6.28831 17.7163 5.6 17.2ZM4 9H2V16H4V9Z" fill="#9691A4"/>
</svg>
