<svg width="14" height="15" viewBox="0 0 14 15" fill="none" xmlns="http://www.w3.org/2000/svg">
<g clip-path="url(#clip0_1203_3914)">
<path d="M13.9965 14.2656L14 14.2651V9.13057C14 6.61873 13.4593 4.68382 10.5228 4.68382C9.11111 4.68382 8.16378 5.45848 7.77703 6.1929H7.73619V4.91832H4.95194V14.2651H7.85111V9.6369C7.85111 8.41832 8.08211 7.23998 9.59119 7.23998C11.0781 7.23998 11.1003 8.63065 11.1003 9.71507V14.2656H13.9965Z" fill="#666276"/>
<path d="M0.230997 4.91886H3.13366V14.2656H0.230997V4.91886Z" fill="#666276"/>
<path d="M1.68117 0.265625C0.753083 0.265625 0 1.01871 0 1.94679C0 2.87488 0.753083 3.64371 1.68117 3.64371C2.60925 3.64371 3.36233 2.87488 3.36233 1.94679C3.36175 1.01871 2.60867 0.265625 1.68117 0.265625Z" fill="#666276"/>
</g>
<defs>
<clipPath id="clip0_1203_3914">
<rect width="14" height="14" fill="white" transform="translate(0 0.265625)"/>
</clipPath>
</defs>
</svg>
