<svg width="14" height="14" viewBox="0 0 14 14" fill="none" xmlns="http://www.w3.org/2000/svg">
<path fill-rule="evenodd" clip-rule="evenodd" d="M2.5 1.75C2.08579 1.75 1.75 2.08579 1.75 2.5V4C1.75 4.41421 2.08579 4.75 2.5 4.75H11.5C11.9142 4.75 12.25 4.41421 12.25 4V2.5C12.25 2.08579 11.9142 1.75 11.5 1.75H2.5ZM0.25 2.5C0.25 1.25736 1.25736 0.25 2.5 0.25H11.5C12.7426 0.25 13.75 1.25736 13.75 2.5V4C13.75 5.24264 12.7426 6.25 11.5 6.25H2.5C1.25736 6.25 0.25 5.24264 0.25 4V2.5Z" fill="#25AAE1"/>
<path fill-rule="evenodd" clip-rule="evenodd" d="M2.5 9.24978C2.08579 9.24978 1.75 9.58557 1.75 9.99978V11.4998C1.75 11.914 2.08579 12.2498 2.5 12.2498H11.5C11.9142 12.2498 12.25 11.914 12.25 11.4998V9.99978C12.25 9.58557 11.9142 9.24978 11.5 9.24978H2.5ZM0.25 9.99978C0.25 8.75714 1.25736 7.74978 2.5 7.74978H11.5C12.7426 7.74978 13.75 8.75714 13.75 9.99978V11.4998C13.75 12.7424 12.7426 13.7498 11.5 13.7498H2.5C1.25736 13.7498 0.25 12.7424 0.25 11.4998V9.99978Z" fill="#25AAE1"/>
</svg>
