<svg width="24" height="24" viewBox="0 0 24 24" fill="none" xmlns="http://www.w3.org/2000/svg">
<path d="M19.6364 12.8257H11.145V4.33433C11.145 3.8458 10.749 3.4498 10.2604 3.4498C7.51458 3.4498 4.9365 4.51564 2.99555 6.45627C1.06378 8.42197 0 10.9983 0 13.7103C0 19.3679 4.60275 23.9707 10.2604 23.9707C13.0063 23.9707 15.5843 22.9048 17.5253 20.9642C19.4571 18.9985 20.5209 16.4222 20.5209 13.7103C20.5209 13.2217 20.1249 12.8257 19.6364 12.8257ZM16.269 19.7188C14.6677 21.3201 12.534 22.2016 10.2605 22.2016C5.57812 22.2016 1.76906 18.3923 1.76906 13.7102C1.76906 11.465 2.6527 9.32919 4.25189 7.70197C5.64352 6.31035 7.43766 5.46205 9.37594 5.26396V13.7103C9.37594 14.1988 9.77189 14.5948 10.2605 14.5948H18.7059C18.5054 16.5118 17.6565 18.3065 16.269 19.7188Z" fill="#25AAE1"/>
<path d="M20.9935 3.02538C19.0278 1.09357 16.4515 0.0297852 13.7396 0.0297852C13.2511 0.0297852 12.8551 0.425738 12.8551 0.914316V10.2903C12.8551 10.7788 13.251 11.1748 13.7396 11.1748H23.1155C23.6044 11.1748 24 10.7788 24 10.2903C24 7.5783 22.9362 5.00229 20.9935 3.02538ZM14.6244 9.40572V1.84511C16.5415 2.04532 18.3355 2.89357 19.7428 4.27638C21.1351 5.69308 21.9848 7.48868 22.1853 9.40572H14.6244Z" fill="#25AAE1"/>
</svg>
