<svg width="24" height="24" viewBox="0 0 24 24" fill="none" xmlns="http://www.w3.org/2000/svg">
<path d="M22.1451 1.85449C20.95 0.65863 19.3601 0 17.6691 0C15.978 0 14.3886 0.65863 13.1929 1.85449L1.85413 13.1935C0.65863 14.3893 0 15.9792 0 17.6699C0 19.3605 0.65863 20.9504 1.85413 22.1455C3.04926 23.3414 4.63916 24 6.33014 24C8.02112 24 9.61066 23.3414 10.8062 22.1455L22.1451 10.8065C23.3406 9.61066 23.9991 8.02075 23.9991 6.33014C23.9991 4.63953 23.3406 3.04962 22.1451 1.85449ZM9.61267 20.952C8.7356 21.8289 7.56976 22.3121 6.33014 22.3121C5.08997 22.3121 3.9245 21.8291 3.04761 20.952C2.17072 20.075 1.68805 18.9097 1.68805 17.67C1.68805 16.4304 2.17108 15.264 3.04761 14.3871L8.12036 9.31403L14.6854 15.8798L9.61267 20.952ZM20.9517 9.61304L15.8789 14.6862L9.31384 8.12036L14.3866 3.04797C15.2635 2.17108 16.4293 1.68787 17.6691 1.68787C18.9091 1.68787 20.0746 2.1709 20.9515 3.04797C21.8284 3.92505 22.311 5.09033 22.311 6.32996C22.311 7.56958 21.8282 8.73596 20.9517 9.61304Z" fill="#25AAE1"/>
<path d="M19.9263 5.69122C19.6571 5.69122 19.3925 5.56268 19.229 5.32446C18.8341 4.74749 18.1826 4.40381 17.4857 4.40381C16.9219 4.40381 16.3924 4.62298 15.9934 5.02197C15.6636 5.35156 15.1295 5.35156 14.7999 5.02197C14.4703 4.6922 14.4703 4.15808 14.7999 3.82849C15.5175 3.11053 16.4711 2.71576 17.4857 2.71576C18.7398 2.71576 19.9122 3.33392 20.6219 4.37011C20.8852 4.75482 20.7873 5.27996 20.4024 5.54382C20.2568 5.64343 20.0907 5.69122 19.9263 5.69122Z" fill="#25AAE1"/>
</svg>
