<svg width="12" height="12" viewBox="0 0 12 12" fill="none" xmlns="http://www.w3.org/2000/svg">
<path fill-rule="evenodd" clip-rule="evenodd" d="M6.22375 1.90883C5.07568 1.86228 3.95511 2.18875 3.07072 2.81617C2.18757 3.44272 1.60643 4.32084 1.41286 5.27715C1.21965 6.23169 1.42083 7.22091 1.99157 8.06501C2.09315 8.21525 2.11908 8.40417 2.06173 8.57622L1.62579 9.88402L3.37027 9.51286C3.49725 9.48584 3.62963 9.50196 3.74642 9.55866C4.74634 10.0441 5.91694 10.1924 7.03685 9.97049C8.15663 9.74866 9.13296 9.17558 9.79296 8.37488C10.4512 7.57633 10.7523 6.60478 10.6578 5.63986C10.5632 4.67401 10.076 3.75655 9.26453 3.0644C8.45153 2.37096 7.3718 1.95538 6.22375 1.90883ZM0.717305 11.2493C0.77295 11.2525 0.828037 11.2475 0.881058 11.2353L3.42259 10.6945C4.61245 11.2236 5.96773 11.3716 7.26357 11.1149C8.62746 10.8447 9.84928 10.1408 10.6932 9.11694C11.5389 8.09094 11.9451 6.81456 11.8189 5.52612C11.6928 4.23862 11.0462 3.05065 10.0216 2.17676C8.99857 1.30414 7.66493 0.799637 6.27101 0.74312C4.87711 0.686603 3.5001 1.08111 2.39566 1.86465C1.28999 2.64906 0.526411 3.77588 0.269384 5.0457C0.0311945 6.22246 0.247234 7.4292 0.867313 8.47014L0.19972 10.4729C0.18159 10.5242 0.170521 10.5784 0.167433 10.6341C0.163372 10.7057 0.172709 10.7763 0.193835 10.8429C0.219296 10.9236 0.261204 10.9955 0.314981 11.0555C0.368646 11.1157 0.435393 11.1654 0.512779 11.1997C0.576531 11.2282 0.64571 11.2453 0.717305 11.2493Z" fill="#9691A4"/>
</svg>
