<svg width="14" height="20" viewBox="0 0 14 20" fill="none" xmlns="http://www.w3.org/2000/svg">
<path fill-rule="evenodd" clip-rule="evenodd" d="M2.03541 2.05904C2.00373 2.08874 2 2.11216 2 2.125V17.875C2 17.8878 2.00373 17.9113 2.03541 17.941C2.0682 17.9717 2.12403 18 2.2 18H11.8C11.876 18 11.9318 17.9717 11.9646 17.941C11.9963 17.9113 12 17.8878 12 17.875V2.125C12 2.11216 11.9963 2.08874 11.9646 2.05904C11.9318 2.0283 11.876 2 11.8 2H9.19248C9.19756 2.04084 9.20018 2.08245 9.20018 2.12467C9.20018 2.67695 8.75246 3.12467 8.20018 3.12467H5.80018C5.24789 3.12467 4.80018 2.67695 4.80018 2.12467C4.80018 2.08245 4.80279 2.04084 4.80787 2H2.2C2.12403 2 2.0682 2.0283 2.03541 2.05904ZM0 2.125C0 0.89158 1.04675 0 2.2 0H11.8C12.9533 0 14 0.89158 14 2.125V17.875C14 19.1084 12.9533 20 11.8 20H2.2C1.04675 20 0 19.1084 0 17.875V2.125ZM7.00009 14.6247C7.55237 14.6247 8.00009 15.0724 8.00009 15.6247V15.6359C8.00009 16.1882 7.55237 16.6359 7.00009 16.6359C6.4478 16.6359 6.00009 16.1882 6.00009 15.6359V15.6247C6.00009 15.0724 6.4478 14.6247 7.00009 14.6247Z" fill="#9691A4"/>
</svg>
