<svg width="14" height="16" viewBox="0 0 14 16" fill="none" xmlns="http://www.w3.org/2000/svg">
<path fill-rule="evenodd" clip-rule="evenodd" d="M7.00007 2C6.80116 2 6.61039 2.07902 6.46974 2.21967C6.33186 2.35755 6.25321 2.54359 6.25016 2.73825C6.25237 2.88471 6.21139 3.0285 6.13379 3.1513C6.07744 3.24048 6.00177 3.31859 5.9093 3.37862C5.87676 3.39985 5.84248 3.41861 5.80671 3.43465C5.07447 3.78397 4.4502 4.32481 4.00007 5C3.55021 5.67479 3.29113 6.45852 3.25007 7.26827V9.5C3.25007 9.53012 3.24825 9.56022 3.24463 9.59013C3.18444 10.0874 3.02537 10.5666 2.77773 11H11.2224C10.9748 10.5666 10.8157 10.0874 10.7555 9.59013C10.7519 9.56022 10.7501 9.53012 10.7501 9.5V7.26827C10.709 6.45852 10.4499 5.67479 10.0001 5C9.54708 4.32052 8.91773 3.77711 8.17946 3.42802C7.91728 3.30405 7.75007 3.04002 7.75007 2.75C7.75007 2.55109 7.67105 2.36032 7.5304 2.21967C7.38974 2.07902 7.19898 2 7.00007 2ZM4.80256 2.26679C4.89412 1.85045 5.10293 1.46516 5.40908 1.15901C5.83103 0.737053 6.40333 0.5 7.00007 0.5C7.59681 0.5 8.1691 0.737053 8.59106 1.15901C8.89721 1.46516 9.10602 1.85045 9.19758 2.26679C10.0195 2.72918 10.7228 3.37993 11.2481 4.16795C11.8521 5.07393 12.1982 6.12718 12.2492 7.21484C12.2498 7.22655 12.2501 7.23827 12.2501 7.25V9.45151C12.2969 9.78614 12.4186 10.1061 12.6062 10.3876C12.8016 10.6807 13.0631 10.9238 13.3696 11.0974C13.666 11.2652 13.8121 11.6117 13.7253 11.9411C13.6385 12.2705 13.3407 12.5 13.0001 12.5H1.00007C0.659451 12.5 0.361605 12.2705 0.274821 11.9411C0.188036 11.6117 0.334108 11.2652 0.630504 11.0974C0.937032 10.9238 1.19852 10.6807 1.39392 10.3876C1.58155 10.1061 1.70321 9.78615 1.75007 9.45151V7.25C1.75007 7.23827 1.75034 7.22655 1.75089 7.21484C1.80194 6.12718 2.14801 5.07393 2.75199 4.16795C3.27734 3.37993 3.98059 2.72918 4.80256 2.26679Z" fill="#25AAE1"/>
<path fill-rule="evenodd" clip-rule="evenodd" d="M4.75007 11C5.16428 11 5.50007 11.3358 5.50007 11.75V12.5C5.50007 12.8978 5.6581 13.2794 5.93941 13.5607C6.22071 13.842 6.60224 14 7.00007 14C7.39789 14 7.77942 13.842 8.06073 13.5607C8.34203 13.2794 8.50007 12.8978 8.50007 12.5V11.75C8.50007 11.3358 8.83585 11 9.25007 11C9.66428 11 10.0001 11.3358 10.0001 11.75V12.5C10.0001 13.2957 9.684 14.0587 9.12139 14.6213C8.55878 15.1839 7.79572 15.5 7.00007 15.5C6.20442 15.5 5.44136 15.1839 4.87875 14.6213C4.31614 14.0587 4.00007 13.2957 4.00007 12.5V11.75C4.00007 11.3358 4.33585 11 4.75007 11Z" fill="#25AAE1"/>
</svg>
