<svg width="18" height="17" viewBox="0 0 18 17" fill="none" xmlns="http://www.w3.org/2000/svg">
<path fill-rule="evenodd" clip-rule="evenodd" d="M8.99465 0.751709C9.28013 0.751709 9.54086 0.913785 9.6672 1.16979L11.8071 5.50579L16.5917 6.19921C16.8744 6.24018 17.1093 6.43815 17.1975 6.70981C17.2857 6.98147 17.212 7.27966 17.0073 7.47889L13.5401 10.8539L14.3576 15.6197C14.4059 15.9012 14.2901 16.1857 14.059 16.3534C13.8278 16.5212 13.5214 16.5431 13.2688 16.41L8.9995 14.1603L4.71992 16.4103C4.46723 16.5432 4.16102 16.521 3.93006 16.3532C3.69909 16.1854 3.58343 15.901 3.6317 15.6197L4.44922 10.8539L0.982015 7.47889C0.777343 7.27966 0.7036 6.98147 0.791819 6.70981C0.880038 6.43815 1.1149 6.24018 1.39758 6.19921L6.18218 5.50579L8.3221 1.16979C8.44844 0.913785 8.70917 0.751709 8.99465 0.751709ZM8.99465 3.19639L7.3527 6.52338C7.24341 6.74483 7.03212 6.89828 6.78772 6.9337L3.1187 7.46545L5.77828 10.0543C5.95531 10.2266 6.03612 10.475 5.99435 10.7185L5.36705 14.3754L8.65088 12.6489C8.8696 12.5339 9.13093 12.534 9.34954 12.6492L12.6219 14.3736L11.9949 10.7185C11.9532 10.475 12.034 10.2266 12.211 10.0543L14.8706 7.46545L11.2016 6.9337C10.9572 6.89828 10.7459 6.74483 10.6366 6.52338L8.99465 3.19639Z" fill="#25AAE1"/>
</svg>
