<svg width="14" height="10" viewBox="0 0 14 10" fill="none" xmlns="http://www.w3.org/2000/svg">
<path fill-rule="evenodd" clip-rule="evenodd" d="M0.333496 5.00017C0.333496 4.53993 0.706592 4.16684 1.16683 4.16684H12.8335C13.2937 4.16684 13.6668 4.53993 13.6668 5.00017C13.6668 5.46041 13.2937 5.8335 12.8335 5.8335H1.16683C0.706592 5.8335 0.333496 5.46041 0.333496 5.00017Z" fill="#666276"/>
<path fill-rule="evenodd" clip-rule="evenodd" d="M13.4227 4.41091C13.7482 4.73635 13.7482 5.26399 13.4227 5.58943L10.0894 8.92276C9.76397 9.2482 9.23633 9.2482 8.91089 8.92276C8.58545 8.59732 8.58545 8.06969 8.91089 7.74425L12.2442 4.41092C12.5697 4.08548 13.0973 4.08548 13.4227 4.41091Z" fill="#666276"/>
<path fill-rule="evenodd" clip-rule="evenodd" d="M8.91089 1.07757C9.23633 0.752137 9.76397 0.752137 10.0894 1.07757L13.4227 4.41091C13.7482 4.73635 13.7482 5.26399 13.4227 5.58943C13.0973 5.91486 12.5697 5.91486 12.2442 5.58942L8.91089 2.25609C8.58545 1.93065 8.58545 1.40301 8.91089 1.07757Z" fill="#666276"/>
</svg>
