<svg width="12" height="8" viewBox="0 0 12 8" fill="none" xmlns="http://www.w3.org/2000/svg">
<path fill-rule="evenodd" clip-rule="evenodd" d="M0.666504 4.00033C0.666504 3.63214 0.964981 3.33367 1.33317 3.33367H10.6665C11.0347 3.33367 11.3332 3.63214 11.3332 4.00033C11.3332 4.36852 11.0347 4.667 10.6665 4.667H1.33317C0.964981 4.667 0.666504 4.36852 0.666504 4.00033Z" fill="black"/>
<path fill-rule="evenodd" clip-rule="evenodd" d="M11.1379 3.52893C11.3982 3.78928 11.3982 4.21139 11.1379 4.47174L8.47123 7.1384C8.21088 7.39875 7.78877 7.39875 7.52842 7.1384C7.26807 6.87805 7.26807 6.45594 7.52842 6.19559L10.1951 3.52893C10.4554 3.26858 10.8775 3.26858 11.1379 3.52893Z" fill="black"/>
<path fill-rule="evenodd" clip-rule="evenodd" d="M7.52842 0.862254C7.78877 0.601905 8.21088 0.601905 8.47123 0.862254L11.1379 3.52893C11.3982 3.78928 11.3982 4.21139 11.1379 4.47174C10.8775 4.73209 10.4554 4.73208 10.1951 4.47173L7.52842 1.80506C7.26807 1.54471 7.26807 1.1226 7.52842 0.862254Z" fill="black"/>
</svg>
