<svg width="14" height="14" viewBox="0 0 14 14" fill="none" xmlns="http://www.w3.org/2000/svg">
<path fill-rule="evenodd" clip-rule="evenodd" d="M5.66683 1.9222C3.45769 1.9222 1.66683 3.71306 1.66683 5.9222C1.66683 8.13134 3.45769 9.9222 5.66683 9.9222C7.87597 9.9222 9.66683 8.13134 9.66683 5.9222C9.66683 3.71306 7.87597 1.9222 5.66683 1.9222ZM0.333496 5.9222C0.333496 2.97668 2.72131 0.588867 5.66683 0.588867C8.61235 0.588867 11.0002 2.97668 11.0002 5.9222C11.0002 8.86772 8.61235 11.2555 5.66683 11.2555C2.72131 11.2555 0.333496 8.86772 0.333496 5.9222Z" fill="black"/>
<path fill-rule="evenodd" clip-rule="evenodd" d="M8.52876 8.78413C8.78911 8.52378 9.21122 8.52378 9.47157 8.78413L13.4716 12.7841C13.7319 13.0445 13.7319 13.4666 13.4716 13.7269C13.2112 13.9873 12.7891 13.9873 12.5288 13.7269L8.52876 9.72694C8.26841 9.46659 8.26841 9.04448 8.52876 8.78413Z" fill="black"/>
</svg>
