<svg width="22" height="24" viewBox="0 0 22 24" fill="none" xmlns="http://www.w3.org/2000/svg">
<path d="M20.547 3.88621L11.3595 0.071666C11.1293 -0.0238652 10.8706 -0.0239121 10.6405 0.071666L1.45302 3.88621C1.10309 4.03153 0.875 4.37315 0.875 4.75204V9.38915C0.875 15.7741 4.73417 21.5176 10.6457 23.9305C10.8728 24.0232 11.1272 24.0232 11.3543 23.9305C17.2657 21.5176 21.125 15.7742 21.125 9.38915V4.75204C21.125 4.37315 20.897 4.03153 20.547 3.88621ZM19.25 9.38915C19.25 14.817 16.0625 19.8138 11 22.0442C6.07278 19.8734 2.75 14.9641 2.75 9.38915V5.37792L11 1.95257L19.25 5.37792V9.38915ZM9.96378 12.5492L13.9933 8.51967C14.3594 8.15357 14.953 8.15353 15.3192 8.51967C15.6853 8.88581 15.6852 9.47939 15.3191 9.84548L10.6267 14.5379C10.2605 14.9041 9.66692 14.9039 9.30087 14.5379L6.68084 11.9179C6.3147 11.5517 6.3147 10.9582 6.68084 10.5921C7.04698 10.226 7.64056 10.2259 8.00666 10.5921L9.96378 12.5492Z" fill="#25AAE1"/>
</svg>
