<svg width="16" height="14" viewBox="0 0 16 14" fill="none" xmlns="http://www.w3.org/2000/svg">
<path fill-rule="evenodd" clip-rule="evenodd" d="M1.15901 0.90901C1.58097 0.487053 2.15326 0.25 2.75 0.25H8C8.59674 0.25 9.16903 0.487053 9.59099 0.90901C10.0129 1.33097 10.25 1.90326 10.25 2.5V4C10.25 4.41421 9.91421 4.75 9.5 4.75C9.08579 4.75 8.75 4.41421 8.75 4V2.5C8.75 2.30109 8.67098 2.11032 8.53033 1.96967C8.38968 1.82902 8.19891 1.75 8 1.75H2.75C2.55109 1.75 2.36032 1.82902 2.21967 1.96967C2.07902 2.11032 2 2.30109 2 2.5V11.5C2 11.6989 2.07902 11.8897 2.21967 12.0303C2.36032 12.171 2.55109 12.25 2.75 12.25H8C8.19891 12.25 8.38968 12.171 8.53033 12.0303C8.67098 11.8897 8.75 11.6989 8.75 11.5V10C8.75 9.58578 9.08579 9.25 9.5 9.25C9.91421 9.25 10.25 9.58578 10.25 10V11.5C10.25 12.0967 10.0129 12.669 9.59099 13.091C9.16903 13.5129 8.59674 13.75 8 13.75H2.75C2.15326 13.75 1.58097 13.5129 1.15901 13.091C0.737053 12.669 0.5 12.0967 0.5 11.5V2.5C0.5 1.90326 0.737053 1.33097 1.15901 0.90901Z" fill="#9691A4"/>
<path fill-rule="evenodd" clip-rule="evenodd" d="M11.9697 4.21964C12.2626 3.92675 12.7374 3.92675 13.0303 4.21964L15.2803 6.46964C15.421 6.6103 15.5 6.80106 15.5 6.99997C15.5 7.19889 15.421 7.38965 15.2803 7.5303L13.0303 9.7803C12.7374 10.0732 12.2626 10.0732 11.9697 9.7803C11.6768 9.48741 11.6768 9.01254 11.9697 8.71964L12.9393 7.74997H4.25001C3.83579 7.74997 3.50001 7.41419 3.50001 6.99997C3.50001 6.58576 3.83579 6.24997 4.25001 6.24997H12.9393L11.9697 5.2803C11.6768 4.98741 11.6768 4.51254 11.9697 4.21964Z" fill="#9691A4"/>
</svg>
