<svg width="18" height="17" viewBox="0 0 18 17" fill="none" xmlns="http://www.w3.org/2000/svg">
<path fill-rule="evenodd" clip-rule="evenodd" d="M8.99489 0.751709C9.28038 0.751709 9.5411 0.913785 9.66745 1.16979L11.8074 5.50579L16.592 6.19921C16.8746 6.24018 17.1095 6.43815 17.1977 6.70981C17.2859 6.98147 17.2122 7.27966 17.0075 7.47889L13.5403 10.8539L14.3578 15.6197C14.4061 15.9012 14.2903 16.1857 14.0592 16.3534C13.8281 16.5212 13.5217 16.5431 13.269 16.41L8.99975 14.1603L4.72016 16.4103C4.46747 16.5432 4.16127 16.521 3.9303 16.3532C3.69934 16.1854 3.58367 15.901 3.63194 15.6197L4.44947 10.8539L0.982259 7.47889C0.777587 7.27966 0.703844 6.98147 0.792063 6.70981C0.880282 6.43815 1.11515 6.24018 1.39782 6.19921L6.18242 5.50579L8.32234 1.16979C8.44868 0.913785 8.70941 0.751709 8.99489 0.751709ZM8.99489 3.19639L7.35295 6.52338C7.24366 6.74483 7.03236 6.89828 6.78797 6.9337L3.11895 7.46545L5.77853 10.0543C5.95555 10.2266 6.03636 10.475 5.9946 10.7185L5.36729 14.3754L8.65112 12.6489C8.86984 12.5339 9.13117 12.534 9.34979 12.6492L12.6222 14.3736L11.9952 10.7185C11.9534 10.475 12.0342 10.2266 12.2113 10.0543L14.8708 7.46545L11.2018 6.9337C10.9574 6.89828 10.7461 6.74483 10.6368 6.52338L8.99489 3.19639Z" fill="#9691A4"/>
</svg>
