<svg width="16" height="16" viewBox="0 0 16 16" fill="#9691A4" xmlns="http://www.w3.org/2000/svg">
<path fill-rule="evenodd" clip-rule="evenodd" d="M8 2C4.68629 2 2 4.68629 2 8C2 11.3137 4.68629 14 8 14C11.3137 14 14 11.3137 14 8C14 4.68629 11.3137 2 8 2ZM0.5 8C0.5 3.85786 3.85786 0.5 8 0.5C12.1421 0.5 15.5 3.85786 15.5 8C15.5 12.1421 12.1421 15.5 8 15.5C3.85786 15.5 0.5 12.1421 0.5 8Z" fill="#9691A4"/>
<path fill-rule="evenodd" clip-rule="evenodd" d="M8 11C8.41421 11 8.75 11.3358 8.75 11.75V11.7575C8.75 12.1717 8.41421 12.5075 8 12.5075C7.58579 12.5075 7.25 12.1717 7.25 11.7575V11.75C7.25 11.3358 7.58579 11 8 11Z" fill="#9691A4"/>
<path fill-rule="evenodd" clip-rule="evenodd" d="M6.85608 3.75871C7.23063 3.57338 7.64309 3.47752 8.06098 3.47868C8.47888 3.47984 8.8908 3.57799 9.26432 3.76539C9.63784 3.9528 9.96276 4.22435 10.2135 4.55867C10.4642 4.89299 10.6339 5.28095 10.7093 5.692C10.7846 6.10305 10.7635 6.52598 10.6476 6.92748C10.5317 7.32898 10.3242 7.6981 10.0414 8.00578C9.75858 8.31346 9.40823 8.55129 9.0179 8.70056C9.01157 8.70298 9.0052 8.70532 8.99881 8.70757C8.92212 8.73453 8.85627 8.78569 8.81118 8.85332C8.76609 8.92095 8.7442 9.00141 8.74881 9.08257C8.77226 9.49612 8.45603 9.85038 8.04248 9.87383C7.62893 9.89729 7.27467 9.58105 7.25121 9.16751C7.2282 8.76172 7.33766 8.35945 7.56311 8.02127C7.78622 7.6866 8.11097 7.43265 8.48929 7.29674C8.65989 7.23025 8.81305 7.12558 8.937 6.99072C9.06268 6.85398 9.15491 6.68992 9.20642 6.51147C9.25793 6.33303 9.26732 6.14506 9.23384 5.96237C9.20036 5.77968 9.12493 5.60726 9.01349 5.45867C8.90206 5.31009 8.75765 5.1894 8.59164 5.1061C8.42563 5.02281 8.24255 4.97919 8.05682 4.97868C7.87109 4.97816 7.68778 5.02076 7.52131 5.10314C7.35484 5.1855 7.20976 5.30539 7.0975 5.45336C6.84714 5.78334 6.37667 5.84789 6.04669 5.59753C5.7167 5.34717 5.65215 4.8767 5.90251 4.54671C6.1551 4.21379 6.48152 3.94405 6.85608 3.75871Z" fill="#9691A4"/>
</svg>
