<svg width="22" height="21" viewBox="0 0 22 21" fill="none" xmlns="http://www.w3.org/2000/svg">
<path fill-rule="evenodd" clip-rule="evenodd" d="M10.9929 0.00219727C11.3735 0.00219727 11.7211 0.218298 11.8896 0.559636L14.7428 6.34098L21.1223 7.26554C21.4992 7.32016 21.8123 7.58412 21.93 7.94633C22.0476 8.30855 21.9493 8.70613 21.6764 8.97177L17.0534 13.4717L18.1435 19.8261C18.2079 20.2015 18.0535 20.5808 17.7453 20.8045C17.4371 21.0282 17.0286 21.0574 16.6917 20.8799L10.9993 17.8803L5.29323 20.8803C4.95631 21.0575 4.54803 21.028 4.24008 20.8042C3.93213 20.5805 3.7779 20.2013 3.84226 19.8261L4.9323 13.4717L0.309353 8.97177C0.0364569 8.70613 -0.0618673 8.30855 0.0557586 7.94633C0.173384 7.58412 0.486538 7.32016 0.863436 7.26554L7.2429 6.34098L10.0961 0.559636C10.2646 0.218298 10.6122 0.00219727 10.9929 0.00219727Z" fill="#FDBC31"/>
</svg>
