<svg width="129" height="26" viewBox="0 0 129 26" fill="none" xmlns="http://www.w3.org/2000/svg">
<path d="M18.6652 15.1993C18.3954 15.4561 18.2714 15.8275 18.3329 16.1918L19.2589 21.226C19.337 21.6527 19.1537 22.0845 18.7902 22.331C18.4339 22.5868 17.96 22.6175 17.5714 22.4129L12.9579 20.0493C12.7975 19.9654 12.6193 19.9204 12.437 19.9153H12.1548C12.0568 19.9296 11.961 19.9603 11.8735 20.0073L7.25892 22.3822C7.0308 22.4948 6.77246 22.5347 6.51934 22.4948C5.90267 22.3802 5.49121 21.8031 5.59225 21.1943L6.51934 16.1601C6.5808 15.7927 6.45684 15.4193 6.18705 15.1584L2.42559 11.5771C2.111 11.2773 2.00163 10.8271 2.14538 10.4209C2.28496 10.0157 2.64121 9.72002 3.07142 9.65351L8.2485 8.91577C8.64225 8.87587 8.98809 8.64053 9.16517 8.29264L11.4464 3.69844C11.5006 3.59612 11.5704 3.50198 11.6548 3.42217L11.7485 3.35055C11.7975 3.29734 11.8537 3.25335 11.9162 3.21753L12.0298 3.1766L12.2068 3.10498H12.6454C13.037 3.14489 13.3818 3.37511 13.562 3.7189L15.8735 8.29264C16.0402 8.62723 16.3641 8.8595 16.7381 8.91577L21.9152 9.65351C22.3527 9.7149 22.7183 10.0116 22.8631 10.4209C22.9995 10.8312 22.8818 11.2814 22.561 11.5771L18.6652 15.1993Z" fill="#00AAE4"/>
<path d="M44.6652 15.1993C44.3954 15.4561 44.2714 15.8275 44.3329 16.1918L45.2589 21.226C45.337 21.6527 45.1537 22.0845 44.7902 22.331C44.4339 22.5868 43.96 22.6175 43.5714 22.4129L38.9579 20.0493C38.7975 19.9654 38.6193 19.9204 38.437 19.9153H38.1548C38.0568 19.9296 37.961 19.9603 37.8735 20.0073L33.2589 22.3822C33.0308 22.4948 32.7725 22.5347 32.5193 22.4948C31.9027 22.3802 31.4912 21.8031 31.5923 21.1943L32.5193 16.1601C32.5808 15.7927 32.4568 15.4193 32.187 15.1584L28.4256 11.5771C28.111 11.2773 28.0016 10.8271 28.1454 10.4209C28.285 10.0157 28.6412 9.72002 29.0714 9.65351L34.2485 8.91577C34.6423 8.87587 34.9881 8.64053 35.1652 8.29264L37.4464 3.69844C37.5006 3.59612 37.5704 3.50198 37.6548 3.42217L37.7485 3.35055C37.7975 3.29734 37.8537 3.25335 37.9162 3.21753L38.0298 3.1766L38.2068 3.10498H38.6454C39.037 3.14489 39.3818 3.37511 39.562 3.7189L41.8735 8.29264C42.0402 8.62723 42.3641 8.8595 42.7381 8.91577L47.9152 9.65351C48.3527 9.7149 48.7183 10.0116 48.8631 10.4209C48.9995 10.8312 48.8818 11.2814 48.561 11.5771L44.6652 15.1993Z" fill="#00AAE4"/>
<path d="M70.6652 15.1993C70.3954 15.4561 70.2714 15.8275 70.3329 16.1918L71.2589 21.226C71.337 21.6527 71.1537 22.0845 70.7902 22.331C70.4339 22.5868 69.96 22.6175 69.5714 22.4129L64.9579 20.0493C64.7975 19.9654 64.6193 19.9204 64.437 19.9153H64.1548C64.0568 19.9296 63.961 19.9603 63.8735 20.0073L59.2589 22.3822C59.0308 22.4948 58.7725 22.5347 58.5193 22.4948C57.9027 22.3802 57.4912 21.8031 57.5923 21.1943L58.5193 16.1601C58.5808 15.7927 58.4568 15.4193 58.187 15.1584L54.4256 11.5771C54.111 11.2773 54.0016 10.8271 54.1454 10.4209C54.285 10.0157 54.6412 9.72002 55.0714 9.65351L60.2485 8.91577C60.6423 8.87587 60.9881 8.64053 61.1652 8.29264L63.4464 3.69844C63.5006 3.59612 63.5704 3.50198 63.6548 3.42217L63.7485 3.35055C63.7975 3.29734 63.8537 3.25335 63.9162 3.21753L64.0298 3.1766L64.2068 3.10498H64.6454C65.037 3.14489 65.3818 3.37511 65.562 3.7189L67.8735 8.29264C68.0402 8.62723 68.3641 8.8595 68.7381 8.91577L73.9152 9.65351C74.3527 9.7149 74.7183 10.0116 74.8631 10.4209C74.9995 10.8312 74.8818 11.2814 74.561 11.5771L70.6652 15.1993Z" fill="#00AAE4"/>
<path d="M97.0822 15.0967C96.8124 15.3536 96.6884 15.725 96.7499 16.0893L97.6759 21.1234C97.754 21.5501 97.5707 21.9819 97.2072 22.2285C96.8509 22.4843 96.377 22.515 95.9884 22.3104L91.3749 19.9467C91.2145 19.8628 91.0363 19.8178 90.854 19.8127H90.5717C90.4738 19.827 90.378 19.8577 90.2905 19.9048L85.6759 22.2797C85.4478 22.3922 85.1895 22.4321 84.9363 22.3922C84.3197 22.2776 83.9082 21.7005 84.0092 21.0917L84.9363 16.0575C84.9978 15.6902 84.8738 15.3167 84.604 15.0558L80.8426 11.4746C80.528 11.1748 80.4186 10.7246 80.5624 10.3184C80.702 9.91318 81.0582 9.61747 81.4884 9.55097L86.6655 8.81323C87.0592 8.77333 87.4051 8.53799 87.5822 8.1901L89.8634 3.5959C89.9176 3.49358 89.9874 3.39945 90.0717 3.31964L90.1655 3.24801C90.2145 3.1948 90.2707 3.15081 90.3332 3.11499L90.4467 3.07407L90.6238 3.00244H91.0624C91.454 3.04235 91.7988 3.27257 91.979 3.61637L94.2905 8.1901C94.4572 8.52469 94.7811 8.75696 95.1551 8.81323L100.332 9.55097C100.77 9.61236 101.135 9.90909 101.28 10.3184C101.417 10.7287 101.299 11.1789 100.978 11.4746L97.0822 15.0967Z" fill="#00AAE4"/>
<path fill-rule="evenodd" clip-rule="evenodd" d="M116.656 4.53725C116.561 4.53725 116.78 4.29373 116.656 4.53725V8.11848V10.5701V12.153C116.656 12.153 116.685 13.8658 116.656 13.9518V15.7373V17.7366V18.1707C116.656 18.1707 117.014 18.0947 117.612 18.3986L121.419 20.3366C121.675 20.4665 121.881 20.353 121.959 20.2977C122.032 20.2465 122.196 20.0972 122.151 19.8403L121.424 15.7373C121.307 15.0834 121.53 14.4153 122.021 13.9518L125.1 11.0459C125.295 10.8637 125.253 10.6519 125.226 10.5701C125.198 10.4841 125.102 10.2795 124.821 10.2396L120.562 9.63691C119.893 9.54278 119.312 9.13247 119.011 8.54106L117.107 4.80635C116.984 4.56283 116.751 4.53725 116.656 4.53725ZM111.653 21.9318C111.223 21.9318 110.796 21.7987 110.43 21.5368C109.799 21.0825 109.489 20.3325 109.624 19.5774L110.349 15.4743C110.376 15.3219 110.323 15.1673 110.208 15.0589L107.129 12.153C106.562 11.6199 106.359 10.832 106.599 10.1004C106.841 9.36065 107.48 8.83165 108.269 8.72114L112.527 8.11848C112.692 8.09596 112.833 7.99671 112.904 7.85551L114.807 4.11876C115.158 3.43014 115.867 3.00244 116.656 3.00244C117.446 3.00244 118.154 3.43014 118.505 4.11876L120.409 7.85449C120.481 7.99671 120.622 8.09596 120.785 8.11848L125.044 8.72114C125.832 8.83165 126.472 9.36065 126.713 10.1004C126.953 10.832 126.749 11.6199 126.182 12.153L123.103 15.0589C122.988 15.1673 122.936 15.3219 122.963 15.4733L123.689 19.5774C123.823 20.3335 123.513 21.0835 122.881 21.5368C122.241 21.9983 121.406 22.0607 120.699 21.6985L116.894 19.7615C116.745 19.6858 116.567 19.6858 116.418 19.7615L112.612 21.6995C112.308 21.855 111.98 21.9318 111.653 21.9318Z" fill="#00AAE4"/>
</svg>
