<svg width="14" height="15" viewBox="0 0 14 15" fill="none" xmlns="http://www.w3.org/2000/svg">
<g clip-path="url(#clip0_1203_3919)">
<path d="M12.5615 4.41487C13.1308 4.01062 13.6097 3.50604 14 2.92504V2.92446C13.4791 3.15254 12.9249 3.30421 12.3463 3.37771C12.9412 3.02246 13.3957 2.46421 13.6092 1.79162C13.0544 2.12237 12.4419 2.35571 11.7892 2.48637C11.2624 1.92521 10.5117 1.57812 9.69267 1.57812C8.10367 1.57812 6.82442 2.86787 6.82442 4.44871C6.82442 4.67621 6.84367 4.89496 6.89092 5.10321C4.50508 4.98654 2.39342 3.84321 0.97475 2.10079C0.727417 2.53071 0.581583 3.02246 0.581583 3.55154C0.581583 4.54554 1.09317 5.42637 1.85675 5.93679C1.39533 5.92804 0.94325 5.79387 0.56 5.58329V5.61479C0.56 7.00954 1.55458 8.16804 2.8595 8.43521C2.62558 8.49937 2.37125 8.52971 2.107 8.52971C1.92325 8.52971 1.73775 8.51921 1.56392 8.48071C1.9355 9.61704 2.99133 10.453 4.2455 10.4804C3.269 11.244 2.02883 11.7042 0.686583 11.7042C0.4515 11.7042 0.22575 11.6937 0 11.6651C1.27167 12.4847 2.77783 12.9531 4.403 12.9531C9.46808 12.9531 12.7692 8.72746 12.5615 4.41487Z" fill="#666276"/>
</g>
<defs>
<clipPath id="clip0_1203_3919">
<rect width="14" height="14" fill="white" transform="translate(0 0.265625)"/>
</clipPath>
</defs>
</svg>
