<svg width="12" height="16" viewBox="0 0 12 16" fill="none" xmlns="http://www.w3.org/2000/svg">
<path fill-rule="evenodd" clip-rule="evenodd" d="M5.99997 2C4.75733 2 3.74997 3.00736 3.74997 4.25C3.74997 5.49264 4.75733 6.5 5.99997 6.5C7.24261 6.5 8.24997 5.49264 8.24997 4.25C8.24997 3.00736 7.24261 2 5.99997 2ZM2.24997 4.25C2.24997 2.17893 3.9289 0.5 5.99997 0.5C8.07104 0.5 9.74997 2.17893 9.74997 4.25C9.74997 6.32107 8.07104 8 5.99997 8C3.9289 8 2.24997 6.32107 2.24997 4.25Z" fill="#25AAE1"/>
<path fill-rule="evenodd" clip-rule="evenodd" d="M4.5 11C3.90326 11 3.33097 11.2371 2.90901 11.659C2.48705 12.081 2.25 12.6533 2.25 13.25V14.75C2.25 15.1642 1.91421 15.5 1.5 15.5C1.08579 15.5 0.75 15.1642 0.75 14.75V13.25C0.75 12.2554 1.14509 11.3016 1.84835 10.5984C2.55161 9.89509 3.50544 9.5 4.5 9.5H7.5C8.49456 9.5 9.44839 9.89509 10.1516 10.5984C10.8549 11.3016 11.25 12.2554 11.25 13.25V14.75C11.25 15.1642 10.9142 15.5 10.5 15.5C10.0858 15.5 9.75 15.1642 9.75 14.75V13.25C9.75 12.6533 9.51295 12.081 9.09099 11.659C8.66903 11.2371 8.09674 11 7.5 11H4.5Z" fill="#25AAE1"/>
</svg>
