<svg width="16" height="15" viewBox="0 0 16 15" fill="none" xmlns="http://www.w3.org/2000/svg">
<path fill-rule="evenodd" clip-rule="evenodd" d="M2.74992 4.50001C2.3357 4.50001 1.99992 4.83579 1.99992 5.25001V12C1.99992 12.4142 2.3357 12.75 2.74992 12.75H13.2499C13.6641 12.75 13.9999 12.4142 13.9999 12V5.25001C13.9999 4.83579 13.6641 4.50001 13.2499 4.50001H2.74992ZM0.499918 5.25001C0.499918 4.00737 1.50728 3.00001 2.74992 3.00001H13.2499C14.4926 3.00001 15.4999 4.00737 15.4999 5.25001V12C15.4999 13.2426 14.4926 14.25 13.2499 14.25H2.74992C1.50728 14.25 0.499918 13.2426 0.499918 12V5.25001Z" fill="#9691A4"/>
<path fill-rule="evenodd" clip-rule="evenodd" d="M6.49992 1.5C6.30101 1.5 6.11024 1.57902 5.96959 1.71967C5.82894 1.86032 5.74992 2.05109 5.74992 2.25V3.75C5.74992 4.16421 5.41413 4.5 4.99992 4.5C4.58571 4.5 4.24992 4.16421 4.24992 3.75V2.25C4.24992 1.65326 4.48697 1.08097 4.90893 0.65901C5.33089 0.237053 5.90318 0 6.49992 0H9.49992C10.0967 0 10.669 0.237053 11.0909 0.65901C11.5129 1.08097 11.7499 1.65326 11.7499 2.25V3.75C11.7499 4.16421 11.4141 4.5 10.9999 4.5C10.5857 4.5 10.2499 4.16421 10.2499 3.75V2.25C10.2499 2.05109 10.1709 1.86032 10.0302 1.71967C9.8896 1.57902 9.69883 1.5 9.49992 1.5H6.49992Z" fill="#9691A4"/>
<path fill-rule="evenodd" clip-rule="evenodd" d="M7.99992 6.75C8.41413 6.75 8.74992 7.08579 8.74992 7.5V7.5075C8.74992 7.92171 8.41413 8.2575 7.99992 8.2575C7.58571 8.2575 7.24992 7.92171 7.24992 7.5075V7.5C7.24992 7.08579 7.58571 6.75 7.99992 6.75Z" fill="#9691A4"/>
<path fill-rule="evenodd" clip-rule="evenodd" d="M0.580147 7.91251C0.766543 7.5426 1.21751 7.39384 1.58742 7.58024C3.57642 8.5825 5.77266 9.10458 7.99992 9.10458C10.2272 9.10458 12.4234 8.5825 14.4124 7.58024C14.7823 7.39384 15.2333 7.5426 15.4197 7.91251C15.6061 8.28241 15.4573 8.73338 15.0874 8.91978C12.889 10.0275 10.4616 10.6046 7.99992 10.6046C5.53822 10.6046 3.11079 10.0275 0.912418 8.91978C0.542514 8.73338 0.393751 8.28241 0.580147 7.91251Z" fill="#9691A4"/>
</svg>
