<svg width="14" height="11" viewBox="0 0 14 11" fill="none" xmlns="http://www.w3.org/2000/svg">
<path fill-rule="evenodd" clip-rule="evenodd" d="M2.33357 1.50008C1.96538 1.50008 1.6669 1.79856 1.6669 2.16675V8.83342C1.6669 9.20161 1.96538 9.50008 2.33357 9.50008H11.6669C12.0351 9.50008 12.3336 9.20161 12.3336 8.83342V2.16675C12.3336 1.79856 12.0351 1.50008 11.6669 1.50008H2.33357ZM0.333567 2.16675C0.333567 1.06218 1.229 0.166748 2.33357 0.166748H11.6669C12.7715 0.166748 13.6669 1.06218 13.6669 2.16675V8.83342C13.6669 9.93799 12.7715 10.8334 11.6669 10.8334H2.33357C1.229 10.8334 0.333567 9.93799 0.333567 8.83342V2.16675Z" fill="#9691A4"/>
<path fill-rule="evenodd" clip-rule="evenodd" d="M0.445533 1.79692C0.649768 1.49057 1.06368 1.40779 1.37003 1.61202L7.00023 5.36549L12.6304 1.61202C12.9368 1.40779 13.3507 1.49057 13.5549 1.79692C13.7592 2.10328 13.6764 2.51719 13.37 2.72142L7.37003 6.72142C7.1461 6.87071 6.85437 6.87071 6.63043 6.72142L0.630433 2.72142C0.324081 2.51719 0.241298 2.10328 0.445533 1.79692Z" fill="#9691A4"/>
</svg>
