<svg width="16" height="14" viewBox="0 0 16 14" fill="none" xmlns="http://www.w3.org/2000/svg">
<path fill-rule="evenodd" clip-rule="evenodd" d="M5.31609 1.51691C4.90451 1.47302 4.48831 1.5148 4.09369 1.63962C3.69907 1.76445 3.33458 1.96961 3.02317 2.24218C2.71177 2.51475 2.46019 2.84882 2.28428 3.22336C2.10837 3.5979 2.01194 4.00479 2.00104 4.41841C1.99014 4.83203 2.06502 5.24343 2.22096 5.6267C2.37691 6.00997 2.61054 6.35683 2.90716 6.64541L2.91189 6.65002L8.00625 11.6945L13.0905 6.66005C13.1053 6.64159 13.1238 6.61847 13.1451 6.59144C13.2056 6.51476 13.2878 6.40819 13.3751 6.28845C13.5651 6.02784 13.7252 5.77706 13.7828 5.63401C13.937 5.25141 14.0105 4.84112 13.9988 4.42881C13.9871 4.0165 13.8903 3.61105 13.7147 3.23783C13.539 2.8646 13.2882 2.53164 12.9778 2.25978C12.6675 1.98792 12.3044 1.78301 11.9113 1.6579C11.5181 1.53278 11.1033 1.49015 10.6929 1.53268C10.2825 1.5752 9.88526 1.70196 9.52611 1.90502C9.16695 2.10809 8.8536 2.38307 8.60565 2.71277C8.46353 2.90174 8.24061 3.01263 8.00416 3.01197C7.7677 3.01132 7.54541 2.89919 7.40434 2.70942C7.15746 2.37732 6.84447 2.09991 6.48507 1.89467C6.12567 1.68943 5.72766 1.56081 5.31609 1.51691ZM14.2041 7.66369C14.2063 7.66548 14.2063 7.6654 14.2063 7.6654L14.2093 7.66179L14.2161 7.65357L14.2399 7.62433C14.26 7.59943 14.2885 7.56398 14.323 7.52017C14.3918 7.43287 14.486 7.31085 14.5872 7.17209C14.7741 6.91571 15.039 6.52992 15.1741 6.19461C15.4055 5.62051 15.5158 5.00484 15.4982 4.38615C15.4806 3.76745 15.3354 3.15905 15.0718 2.59903C14.8082 2.03901 14.4319 1.53942 13.9663 1.13153C13.5007 0.723638 12.956 0.416227 12.3661 0.228525C11.7763 0.0408228 11.154 -0.0231314 10.5383 0.040663C9.92259 0.104457 9.32667 0.294628 8.78784 0.599278C8.50851 0.757211 8.24764 0.944149 8.00932 1.15649C7.77077 0.941546 7.50926 0.752187 7.22892 0.5921C6.68972 0.284181 6.0926 0.0912234 5.47516 0.0253711C4.85773 -0.0404812 4.23334 0.0221971 3.64131 0.209462C3.04929 0.396728 2.50244 0.704525 2.03523 1.11348C1.56801 1.52243 1.19053 2.02369 0.926578 2.58568C0.662624 3.14768 0.517912 3.75823 0.50156 4.3789C0.485208 4.99957 0.597569 5.6169 0.831566 6.19201C1.06513 6.76606 1.41483 7.28564 1.85871 7.71814L7.47791 13.2823L7.47849 13.2829C7.77078 13.5723 8.24168 13.5724 8.53396 13.2829L14.1036 7.76786C14.1404 7.73767 14.1749 7.70344 14.2063 7.6654L14.2041 7.66369Z" fill="#9691A4"/>
</svg>
