<svg width="12" height="16"  viewBox="0 0 12 16" fill="#9691A4" xmlns="http://www.w3.org/2000/svg">
<path fill-rule="evenodd" clip-rule="evenodd" d="M2.25 8.00001C1.83579 8.00001 1.5 8.3358 1.5 8.75001V13.25C1.5 13.6642 1.83579 14 2.25 14H9.75C10.1642 14 10.5 13.6642 10.5 13.25V8.75001C10.5 8.3358 10.1642 8.00001 9.75 8.00001H2.25ZM0 8.75001C0 7.50737 1.00736 6.50001 2.25 6.50001H9.75C10.9926 6.50001 12 7.50737 12 8.75001V13.25C12 14.4927 10.9926 15.5 9.75 15.5H2.25C1.00736 15.5 0 14.4927 0 13.25V8.75001Z" fill="#9691A4"/>
<path fill-rule="evenodd" clip-rule="evenodd" d="M4.5 11C4.5 10.1716 5.17157 9.5 6 9.5C6.82843 9.5 7.5 10.1716 7.5 11C7.5 11.8284 6.82843 12.5 6 12.5C5.17157 12.5 4.5 11.8284 4.5 11Z" fill="#9691A4"/>
<path fill-rule="evenodd" clip-rule="evenodd" d="M6 2C5.40326 2 4.83097 2.23705 4.40901 2.65901C3.98705 3.08097 3.75 3.65326 3.75 4.25V7.25C3.75 7.66421 3.41421 8 3 8C2.58579 8 2.25 7.66421 2.25 7.25V4.25C2.25 3.25544 2.64509 2.30161 3.34835 1.59835C4.05161 0.895088 5.00544 0.5 6 0.5C6.99456 0.5 7.94839 0.895088 8.65165 1.59835C9.35491 2.30161 9.75 3.25544 9.75 4.25V7.25C9.75 7.66421 9.41421 8 9 8C8.58579 8 8.25 7.66421 8.25 7.25V4.25C8.25 3.65326 8.01295 3.08097 7.59099 2.65901C7.16903 2.23705 6.59674 2 6 2Z" fill="#9691A4"/>
</svg>
