<svg width="88" height="17" viewBox="0 0 88 17" fill="none" xmlns="http://www.w3.org/2000/svg">
<path fill-rule="evenodd" clip-rule="evenodd" d="M7.99541 1.16809C8.24917 1.16809 8.48093 1.31216 8.59323 1.53972L10.4954 5.39394L14.7484 6.01032C14.9996 6.04673 15.2084 6.22271 15.2868 6.46418C15.3652 6.70566 15.2997 6.97072 15.1177 7.14781L12.0358 10.1478L12.7625 14.384C12.8054 14.6343 12.7025 14.8872 12.497 15.0363C12.2915 15.1854 12.0192 15.2049 11.7946 15.0865L7.99972 13.0868L4.19565 15.0868C3.97103 15.2049 3.69885 15.1853 3.49355 15.0361C3.28825 14.8869 3.18543 14.6342 3.22834 14.384L3.95503 10.1478L0.873065 7.14781C0.691134 6.97072 0.625585 6.70566 0.704002 6.46418C0.782419 6.22271 0.991188 6.04673 1.24245 6.01032L5.49543 5.39394L7.39758 1.53972C7.50989 1.31216 7.74164 1.16809 7.99541 1.16809Z" fill="#FDBC31"/>
<path fill-rule="evenodd" clip-rule="evenodd" d="M25.9954 1.16809C26.2492 1.16809 26.4809 1.31216 26.5932 1.53972L28.4954 5.39394L32.7484 6.01032C32.9996 6.04673 33.2084 6.22271 33.2868 6.46418C33.3652 6.70566 33.2997 6.97072 33.1177 7.14781L30.0358 10.1478L30.7625 14.384C30.8054 14.6343 30.7025 14.8872 30.497 15.0363C30.2915 15.1854 30.0192 15.2049 29.7946 15.0865L25.9997 13.0868L22.1956 15.0868C21.971 15.2049 21.6989 15.1853 21.4935 15.0361C21.2882 14.8869 21.1854 14.6342 21.2283 14.384L21.955 10.1478L18.8731 7.14781C18.6911 6.97072 18.6256 6.70566 18.704 6.46418C18.7824 6.22271 18.9912 6.04673 19.2425 6.01032L23.4954 5.39394L25.3976 1.53972C25.5099 1.31216 25.7416 1.16809 25.9954 1.16809Z" fill="#FDBC31"/>
<path fill-rule="evenodd" clip-rule="evenodd" d="M43.9954 1.16809C44.2492 1.16809 44.4809 1.31216 44.5932 1.53972L46.4954 5.39394L50.7484 6.01032C50.9996 6.04673 51.2084 6.22271 51.2868 6.46418C51.3652 6.70566 51.2997 6.97072 51.1177 7.14781L48.0358 10.1478L48.7625 14.384C48.8054 14.6343 48.7025 14.8872 48.497 15.0363C48.2915 15.1854 48.0192 15.2049 47.7946 15.0865L43.9997 13.0868L40.1956 15.0868C39.971 15.2049 39.6989 15.1853 39.4935 15.0361C39.2882 14.8869 39.1854 14.6342 39.2283 14.384L39.955 10.1478L36.8731 7.14781C36.6911 6.97072 36.6256 6.70566 36.704 6.46418C36.7824 6.22271 36.9912 6.04673 37.2425 6.01032L41.4954 5.39394L43.3976 1.53972C43.5099 1.31216 43.7416 1.16809 43.9954 1.16809Z" fill="#FDBC31"/>
<path fill-rule="evenodd" clip-rule="evenodd" d="M61.9954 1.16809C62.2492 1.16809 62.4809 1.31216 62.5932 1.53972L64.4954 5.39394L68.7484 6.01032C68.9996 6.04673 69.2084 6.22271 69.2868 6.46418C69.3652 6.70566 69.2997 6.97072 69.1177 7.14781L66.0358 10.1478L66.7625 14.384C66.8054 14.6343 66.7025 14.8872 66.497 15.0363C66.2915 15.1854 66.0192 15.2049 65.7946 15.0865L61.9997 13.0868L58.1956 15.0868C57.971 15.2049 57.6989 15.1853 57.4935 15.0361C57.2882 14.8869 57.1854 14.6342 57.2283 14.384L57.955 10.1478L54.8731 7.14781C54.6911 6.97072 54.6256 6.70566 54.704 6.46418C54.7824 6.22271 54.9912 6.04673 55.2425 6.01032L59.4954 5.39394L61.3976 1.53972C61.5099 1.31216 61.7416 1.16809 61.9954 1.16809Z" fill="#FDBC31"/>
<path fill-rule="evenodd" clip-rule="evenodd" d="M79.9954 1.16809C80.2492 1.16809 80.4809 1.31216 80.5932 1.53972L82.4954 5.39394L86.7484 6.01032C86.9996 6.04673 87.2084 6.22271 87.2868 6.46418C87.3652 6.70566 87.2997 6.97072 87.1177 7.14781L84.0358 10.1478L84.7625 14.384C84.8054 14.6343 84.7025 14.8872 84.497 15.0363C84.2915 15.1854 84.0192 15.2049 83.7946 15.0865L79.9997 13.0868L76.1956 15.0868C75.971 15.2049 75.6989 15.1853 75.4935 15.0361C75.2882 14.8869 75.1854 14.6342 75.2283 14.384L75.955 10.1478L72.8731 7.14781C72.6911 6.97072 72.6256 6.70566 72.704 6.46418C72.7824 6.22271 72.9912 6.04673 73.2425 6.01032L77.4954 5.39394L79.3976 1.53972C79.5099 1.31216 79.7416 1.16809 79.9954 1.16809ZM79.9954 3.34114L78.5359 6.29846C78.4388 6.49531 78.2509 6.63171 78.0337 6.6632L74.7723 7.13586L77.1364 9.43704C77.2938 9.59021 77.3656 9.81104 77.3285 10.0275L76.7709 13.278L79.6898 11.7433C79.8843 11.6411 80.1165 11.6412 80.3109 11.7436L83.2197 13.2764L82.6623 10.0275C82.6252 9.81104 82.697 9.59021 82.8544 9.43704L85.2185 7.13586L81.9571 6.6632C81.7399 6.63171 81.5521 6.49531 81.4549 6.29846L79.9954 3.34114Z" fill="#BBB7C5"/>
</svg>
