<svg width="14" height="14" viewBox="0 0 14 14" fill="none" xmlns="http://www.w3.org/2000/svg">
<path d="M10.2124 8.34556L10.2072 8.38931C8.92442 7.74997 8.79025 7.66481 8.62458 7.91331C8.50967 8.08539 8.17483 8.47564 8.07392 8.59114C7.97183 8.70489 7.87033 8.71364 7.69708 8.63489C7.52208 8.54739 6.96033 8.36364 6.29533 7.76864C5.77733 7.30489 5.42967 6.73614 5.327 6.56114C5.15608 6.26597 5.51367 6.22397 5.83917 5.60797C5.8975 5.48547 5.86775 5.38922 5.82458 5.30231C5.78083 5.21481 5.43258 4.35731 5.28675 4.01547C5.14675 3.67481 5.00267 3.71797 4.89475 3.71797C4.55875 3.68881 4.31317 3.69347 4.09675 3.91864C3.15525 4.95347 3.39267 6.02097 4.19825 7.15614C5.78142 9.22814 6.62492 9.60964 8.16725 10.1393C8.58375 10.2717 8.9635 10.2531 9.26392 10.2099C9.59875 10.1568 10.2947 9.78931 10.4399 9.37806C10.5887 8.96681 10.5887 8.62556 10.5449 8.54681C10.5018 8.46806 10.3874 8.42431 10.2124 8.34556Z" fill="#25AAE1"/>
<path d="M11.97 2.01168C7.48475 -2.32424 0.0618333 0.820514 0.0589167 6.93735C0.0589167 8.16001 0.379167 9.35235 0.989333 10.4053L0 13.9998L3.69542 13.0361C8.30667 15.5269 13.9977 12.2194 14 6.94085C14 5.08818 13.2767 3.3446 11.9612 2.03443L11.97 2.01168ZM12.8345 6.9216C12.831 11.3742 7.94325 14.1549 4.0775 11.8823L3.8675 11.7574L1.68 12.3262L2.26625 10.1999L2.12683 9.98118C-0.278833 6.1516 2.485 1.1466 7.042 1.1466C8.59017 1.1466 10.0433 1.75035 11.1376 2.8441C12.2313 3.92851 12.8345 5.3816 12.8345 6.9216Z" fill="#25AAE1"/>
</svg>
