<svg width="120" height="40" viewBox="0 0 120 40" fill="none" xmlns="http://www.w3.org/2000/svg">
<path d="M46.0813 34.2765C41.6161 31.4001 35.5562 30.8953 25.7834 33.6067C15.3649 36.055 11.8911 37.6245 7.32919 34.4739C5.57659 32.9262 4.94824 30.4342 5.41744 26.8447C6.50569 20.9932 9.4466 15.3621 14.6705 9.11577C17.5862 5.86646 20.291 3.07796 23.8624 1.95821C26.5996 1.25576 26.3437 3.40691 26.0125 3.71456C25.663 3.71456 25.0759 3.76961 24.6221 4.06571C24.2539 4.35131 23.243 5.27351 23.1887 6.51402C23.1104 8.41302 25.0756 8.01777 25.9232 6.97512C26.8369 5.80016 28.1872 3.55016 27.125 1.45316C26.6798 0.706759 25.9106 0.190908 24.9556 0.0152581C21.6853 -0.171642 18.6397 1.38731 15.8287 3.11081C9.68135 7.38117 4.76389 13.2984 1.98139 19.7754C0.377285 23.6833 -1.07352 29.2813 1.10104 33.8376C2.78344 36.999 6.27589 38.6783 10.4427 38.3271C13.3652 38.0201 16.8991 37.0755 19.2758 36.5052C21.6527 35.9338 33.8189 31.7518 37.8164 39.0306C37.8164 39.0306 39.1457 36.4501 42.4678 36.3951C45.199 36.1431 49.1392 37.1858 52.0084 39.2931C51.0524 37.8555 48.3422 35.7367 46.0813 34.2765Z" fill="#BBB7C5"/>
<path d="M27.0237 9.84997C24.7482 8.35702 20.1747 11.2112 16.5115 16.1071C13.1617 20.4986 11.7153 25.6027 13.2895 27.9629C15.631 30.7402 19.9782 26.7005 21.8268 24.5383L22.0653 24.2855C23.3224 22.9352 24.2935 21.3104 25.2337 19.7513C25.2337 19.7513 26.0977 18.3242 26.139 18.2582C26.673 18.1598 27.3162 18.0061 28.041 17.7974C28.0306 17.8301 25.2679 22.4738 25.5498 24.7787C25.6375 25.4819 25.5706 28.0507 28.0785 28.8299C31.4211 29.3902 34.0902 26.7991 36.4449 24.4937C36.4449 24.4937 36.8461 24.1099 37.0731 23.8907C37.0156 24.1205 36.9408 24.4273 36.9408 24.4273C35.9622 27.8305 37.2813 28.5446 38.1064 28.808C40.6002 29.5331 43.5793 25.9102 43.5891 25.9102C43.5117 27.0514 43.2859 27.9953 44.4889 28.753C45.6243 29.1595 46.7734 28.5397 47.647 27.9578C50.7933 25.7405 53.328 22.2698 55.3752 19.27H54.0693C54.0538 19.27 50.847 23.9182 48.7645 24.9284C48.7612 24.9284 48.3822 25.123 48.1639 24.9691C47.8935 24.7385 48.0001 24.259 48.1671 23.9194C48.1776 23.8973 56.2077 9.96997 56.2077 9.96997H52.4163C52.4163 9.96997 52.0022 10.64 51.9684 10.684C51.9429 10.6621 51.8821 10.5469 51.8401 10.4917C49.4911 7.24237 44.1717 12.2404 40.1668 18.0364C38.625 20.2651 36.6619 22.7744 34.6264 24.5857C34.6264 24.5857 31.6108 27.3499 30.3225 25.3639C29.8515 24.5294 29.9964 23.3095 30.262 22.5083C31.7622 18.2378 34.3471 14.3623 37.2888 12.0239C38.119 11.3767 39.0217 11.1895 39.4695 11.464C39.8964 11.7169 39.9652 12.3421 39.6952 12.7703C39.0102 12.7484 38.4612 12.9566 38.0151 13.4177C37.1361 14.3399 36.8307 15.2293 37.1101 16.0637C38.4678 17.9957 41.1754 14.1754 41.0445 11.8481C40.9977 11.0137 40.5526 10.2235 39.8881 9.83887C38.898 9.24637 37.3875 9.39982 36.4099 9.87217C35.1012 10.366 33.0298 12.0893 31.8207 13.4288C30.2985 15.1087 27.6877 16.9747 26.8714 16.7657C27.1383 16.052 29.3434 11.5403 27.0237 9.84997ZM45.3028 16.5244C46.0404 15.5036 48.187 12.77 48.7104 12.3091C50.4705 10.7606 51.174 11.4419 51.2349 11.9246C49.5922 14.8666 47.6535 18.2369 45.8307 21.2669C45.8344 21.2561 45.2602 22.1341 45.2602 22.1341C44.4552 23.3632 43.6446 24.4172 42.3223 25.1525C42.1338 25.2079 41.823 25.2299 41.6161 25.0756C41.3671 24.9109 41.2689 24.6364 41.2969 24.3509C41.3763 23.4071 42.3372 20.5205 45.3028 16.5244ZM24.6771 18.2917C24.6771 18.2917 24.6439 18.3908 24.6277 18.4232C24.6235 18.4232 22.9746 21.1124 22.9746 21.1124C21.9795 22.441 20.737 24.11 19.1839 24.911C18.7236 25.0646 18.0871 25.1638 17.7628 24.7579C17.0754 23.9344 17.4297 22.7926 17.7175 21.8707L17.8195 21.5413C18.6448 19.3021 19.9542 17.3257 21.2289 15.4924C21.2448 15.4816 21.2805 15.4706 21.2934 15.4706C21.2965 15.4816 21.3016 15.4816 21.3037 15.5036C22.1035 17.0402 23.6032 17.7535 24.7248 18.0833C24.7315 18.0833 24.7389 18.0943 24.7389 18.1163C24.739 18.149 24.7207 18.1933 24.6771 18.2917ZM26.2392 15.1195C26.2318 15.1414 25.5048 16.81 25.5048 16.81C25.3996 16.8977 25.2334 16.8539 25.0429 16.81L24.7165 16.7548C23.6916 16.4366 22.9185 15.7559 22.6801 14.9437C22.3515 13.3628 23.7019 12.1223 24.2968 11.6725C24.8677 11.2769 25.7553 11.0684 26.2707 11.4748C26.5885 11.8481 26.709 12.331 26.709 12.8582C26.7091 13.5715 26.4889 14.3728 26.2392 15.1195ZM74.1702 20.2127C73.8045 19.4225 72.9368 18.9175 72.0119 18.9722C69.0084 19.2469 66.0707 21.7168 64.5281 25.2623C63.7187 27.0848 63.2769 28.5886 62.9873 30.9817C63.9213 29.9062 65.8263 28.1389 67.9881 27.1727C67.9881 27.1727 68.2823 24.8785 69.7823 22.8365C70.3499 21.991 71.4857 20.6299 72.7611 20.992C73.8756 21.3653 73.4838 24.4502 72.0027 27.4355C70.9068 29.6314 69.2298 31.8275 67.533 33.3421C66.0329 34.6154 63.8133 36.1523 61.8714 34.9669C60.6483 34.2427 60.0245 32.7272 60.1562 30.7733C60.7406 25.2298 63.2642 20.5093 66.8754 15.1303C70.599 10.1354 74.7036 5.00887 80.2331 2.27496C81.3609 1.70421 82.4054 1.57251 83.3082 1.92381C83.3082 1.92381 78.1176 4.77802 75.6434 10.0585C75.014 11.398 74.1386 13.2088 75.0201 14.8117C75.4808 15.6458 76.2986 15.7118 76.9572 15.6679C79.9901 14.9651 81.9495 12.133 83.5505 9.54247C84.4787 7.57747 85.3037 5.62342 85.3037 3.44976C85.3037 3.18636 85.29 2.83521 85.2678 2.57151C86.7167 1.80336 89.688 3.16431 89.688 3.16431C92.0099 3.93306 96.9538 7.72057 98.6215 8.44477C99.4349 7.50082 100.772 6.07387 101.525 5.36017L100.435 4.69042C98.6903 3.62556 96.8463 2.61546 95.0315 1.61661C90.9096 -0.633541 87.5544 0.15666 85.847 0.771511C85.1759 1.01286 84.5627 1.22151 84.5627 1.22151C83.2955 -0.16164 81.2171 -0.0302399 79.6857 0.34326C74.1786 1.92396 69.0656 5.77702 63.5838 12.4627C59.5536 17.6992 57.0537 22.2221 55.7213 26.6899C54.6942 29.6977 54.382 34.1216 56.8889 36.7454C59.0202 38.9734 61.8464 38.4907 63.842 37.6897C68.166 35.56 72.0524 30.971 73.9889 25.6906C74.4563 24.121 74.9748 21.9035 74.1702 20.2127ZM84.1133 3.66951C83.5409 10.2343 78.438 14.0878 77.1753 14.3947C76.4102 14.5481 75.1046 14.2081 76.2702 11.453C77.9865 7.74217 80.9171 4.59187 84.0611 2.97801C84.1377 3.25251 84.1356 3.42771 84.1133 3.66951ZM114.383 4.50351C111.638 6.06262 108.793 7.07227 105.348 6.72112C104.394 7.79722 103.464 8.90587 102.608 10.0474C107.442 11.2769 112.567 8.54347 115.426 5.94202C118.449 3.31821 120 0.0141602 120 0.0141602C120 0.0141602 117.733 2.60466 114.383 4.50351ZM62.5091 9.97027H58.9085L56.8775 13.2703H60.4773L62.5091 9.97027Z" fill="#BBB7C5"/>
<path d="M105.334 34.5814C104.947 34.8448 104.403 34.6423 104.607 34.0387C105.113 32.5018 107.127 29.3698 107.127 29.3698L112.737 19.4209H108.894C108.712 19.7209 108.321 20.4097 108.321 20.4097C108.143 20.1136 107.612 19.4553 107.393 19.3129C106.454 18.7197 105.077 19.0002 104.127 19.5379C99.9962 21.9534 96.9822 26.7256 94.6052 30.4473C94.6052 30.4473 92.103 34.5843 90.7142 34.8919C89.6298 34.9798 89.7417 33.5191 89.7887 33.1788C90.2079 30.7194 91.1816 28.3813 92.1624 26.2626C94.1577 24.8794 96.4346 23.0682 98.5038 21.0813C102.994 16.7886 106.78 11.9254 107.334 10.8387C107.334 10.8387 106.735 10.9596 106.027 10.9813C102.573 15.8005 95.5029 22.8046 93.3596 23.8473C94.3091 21.5634 100.444 10.6629 105.664 5.44855L106.486 4.6579C107.756 3.4174 109.072 2.14404 110.098 1.93539C110.206 1.92444 110.346 1.93539 110.466 2.18829C110.512 3.15414 110.152 3.86785 109.74 4.6801L109.162 5.86585C109.162 5.86585 109.98 5.7121 110.518 5.536C111.142 4.36195 111.833 3.04419 111.579 1.47474C111.494 0.969692 111.128 0.585542 110.65 0.497642C109.093 0.201241 107.396 1.35354 106.03 2.28699L105.975 2.31969C98.9547 7.8196 93.0269 15.7456 87.8441 26.5698C87.4685 26.8548 86.0172 27.1954 85.7706 27.0306C86.2824 25.977 86.9268 24.5605 87.2492 23.0236C87.305 22.5843 87.3569 22.1346 87.3569 21.6955C87.3569 20.7507 87.1301 19.8618 86.2838 19.2474C85.2914 18.7533 84.0648 18.984 83.2377 19.3569C79.5332 20.8938 76.7644 24.6924 74.7662 27.8206C73.6916 29.8081 72.6202 31.9368 72.3235 34.3743C72.1145 36.2841 72.5399 37.5138 73.6259 38.1286C74.7425 38.6991 76.148 38.1061 76.7002 37.821C80.4533 35.8449 83.0757 31.8822 85.1427 28.2594C85.2249 28.2486 86.3535 28.2159 87.2073 27.996C87.2186 27.996 87.2234 27.996 87.2423 28.0074C87.1934 28.1715 86.7522 29.4892 86.7522 29.4892C85.4421 33.331 84.8363 35.944 86.0738 37.4917C87.8421 39.6763 90.7698 37.4152 93.1514 34.4287C92.6402 38.0073 94.4948 38.5675 95.9087 38.2933C97.5327 37.8544 99.3424 36.1195 100.182 35.2306C99.9126 36.2733 99.9858 38.1399 101.463 38.3262C102.476 38.5134 103.234 37.9626 104.11 37.4904C107.256 35.7777 111.021 30.0706 111.999 28.4206H110.717C109.327 30.5211 107.559 33.2745 105.334 34.5814ZM77.1017 34.1992C76.9022 33.9027 76.8361 33.5787 76.8295 33.2283C76.7912 31.0756 79.1072 27.2209 80.7417 25.1209H80.7452C81.4301 26.6209 82.9814 27.5851 83.9178 27.9915C82.7549 30.5824 78.766 36.1312 77.1017 34.1992ZM84.5744 26.8332C84.4637 26.9106 82.5076 26.2515 82.1294 24.4402C81.8087 22.8808 82.8825 21.6624 83.9214 21.0483C84.3674 20.6967 85.0391 20.5764 85.5318 20.7513C85.9892 21.0592 86.1131 21.6085 86.1131 22.2003C86.1131 22.5633 86.0649 22.9362 86.0225 23.2764L86.0132 23.3535C85.6856 24.5705 85.202 25.7401 84.5744 26.8332ZM100.264 33.5077C100.262 33.5077 99.8927 33.837 99.8927 33.837C99.365 34.3089 98.822 34.8138 98.1665 34.5612C97.9854 34.4955 97.8581 34.2541 97.8275 34.0669C97.7976 32.7166 98.4056 31.4655 98.9954 30.247L99.1466 29.9286C100.843 27.0964 102.814 23.7592 105.71 21.4432C106.198 21.0912 106.727 20.7954 107.286 21.0261C107.415 21.1467 107.565 21.3553 107.565 21.5637C107.565 21.6298 107.506 21.8053 107.472 21.8601C106.663 23.167 105.893 24.5389 105.144 25.8562C103.68 28.458 102.162 31.147 100.264 33.5077Z" fill="#BBB7C5"/>
</svg>
